<svg width="216" height="198" viewBox="0 0 216 198" fill="none" xmlns="http://www.w3.org/2000/svg">
<path d="M103.147 3.59224C136.959 1.52658 163.479 34.5076 154.089 67.0801C142.485 107.33 90.5331 116.521 65.6851 83.0066C42.199 51.3346 64.0406 5.98284 103.147 3.59224Z" fill="#F1F0EE" stroke="#518FBB" stroke-width="7" stroke-linecap="round" stroke-linejoin="round"/>
<path d="M103.04 8.68957C142.077 6.37324 165.623 51.8689 140.229 82.2643C119.888 106.611 81.4627 102.735 66.4863 74.8326C51.1069 46.1779 70.7203 10.6067 103.04 8.68957Z" fill="url(#paint0_linear_101_1940)"/>
<path d="M89.9031 25.4608C94.2112 24.8109 98.0561 26.4495 101.345 29.0722C105.63 32.484 108.97 39.5258 115.65 36.3972C111.217 37.2095 108.187 33.0967 105.69 30.0284C112.532 27.8606 121.806 22.1093 127.939 28.7565C136.162 37.6691 126.605 48.6008 124.335 56.9981C122.232 64.7873 123.326 75.7237 119.036 82.6912C117.466 85.2443 113.894 87.8067 113.102 83.1137C112.31 78.4207 114.121 64.9776 106.853 64.3231C97.9264 63.5154 99.7098 75.5844 99.1169 80.9923C98.3665 87.8252 94.4382 86.4651 92.122 81.4147C88.6617 73.8669 89.8337 64.1931 87.4619 56.3575C85.5858 50.1605 81.1156 45.5371 80.8932 38.5232C80.7218 33.12 84.0895 26.3381 89.8985 25.4654L89.9031 25.4608Z" fill="#F1F0EE"/>
<path d="M91.3855 27.5859C94.8829 27.1125 98.9641 29.3592 101.239 31.9401C101.998 32.8035 104.717 36.0621 102.193 35.8672C99.4041 35.6536 95.9669 28.584 89.9032 30.1344C88.9072 30.3897 84.9882 33.7736 86.8319 30.4547C87.448 29.3406 90.1301 27.7577 91.3855 27.5859Z" fill="#B4EAF7"/>
<path d="M118.721 28.0092C124.122 27.3918 128.907 31.7877 127.305 37.2466C126.17 41.1087 124.196 34.1272 123.914 33.6352C121.741 29.8799 118.906 30.4694 115.437 29.3878C115.39 28.919 118.276 28.0602 118.721 28.0092Z" fill="#5169A7"/>
<path d="M57.69 150.271C57.1522 150.271 56.6143 150.256 56.0976 150.23C54.3315 150.14 52.8449 149.848 51.5489 149.35C48.5588 148.178 46.9112 145.754 46.9112 142.514C46.9112 139.939 47.8896 137.911 49.7446 136.644C51.3117 135.557 53.3616 135.029 56.0044 135.029C57.6307 135.029 59.3841 135.23 61.2223 135.623C59.6001 133.087 58.3465 130.814 57.5079 129.249C55.0472 130.059 52.7856 130.472 50.7823 130.472C49.3508 130.472 47.2712 130.195 46.1192 129.41C45.7999 129.193 45.5656 128.835 45.467 128.414C45.4187 128.206 45.4066 127.988 45.4313 127.773C45.4561 127.559 45.5172 127.352 45.611 127.167C45.8778 126.629 46.3564 126.297 46.8646 126.297C47.0849 126.297 47.2966 126.357 47.4915 126.483C48.1776 126.925 49.6811 127.127 50.7865 127.127C52.4044 127.127 54.162 126.85 56.0213 126.307C55.1912 124.561 54.611 123.223 54.251 122.222C53.8656 121.06 53.6707 120.391 53.603 119.742C53.5649 119.285 53.6707 118.847 53.9037 118.5C54.0197 118.326 54.1638 118.182 54.3275 118.076C54.4911 117.97 54.6711 117.904 54.8566 117.881C54.9074 117.876 54.9625 117.871 55.0133 117.871C55.763 117.871 56.3856 118.5 56.4533 119.33C56.4533 120.019 57.4571 122.569 58.7997 125.331C60.5107 124.632 62.2726 123.777 64.17 122.72C64.3733 122.615 64.5851 122.559 64.7968 122.559C65.339 122.559 65.8048 122.911 66.0166 123.48C66.3385 124.345 66.0378 125.341 65.3432 125.708C63.7296 126.634 62.0736 127.459 60.2863 128.218C61.8576 131.146 63.7761 134.234 65.9827 137.408C66.3766 138.017 66.4063 138.852 66.059 139.451C65.8091 139.878 65.3855 140.135 64.9281 140.135C64.7503 140.135 64.5724 140.095 64.4114 140.019C63.7931 139.748 63.1239 139.551 62.4759 139.36C60.2863 138.711 58.1093 138.379 56.0044 138.379C54.4035 138.379 53.0397 138.606 52.0529 139.033C51.0237 139.471 49.7955 140.427 49.7955 142.509C49.7955 143.907 50.363 144.964 51.4769 145.643C52.6585 146.362 54.4416 146.84 56.2458 146.921C56.7371 146.946 57.2369 146.961 57.7366 146.961C59.4096 146.961 61.1079 146.82 62.9291 146.528C62.9968 146.518 63.0689 146.508 63.1366 146.508C63.8185 146.508 64.3903 147.122 64.4961 147.962C64.5512 148.41 64.4623 148.847 64.242 149.194C64.026 149.536 63.6957 149.763 63.3187 149.828C61.3917 150.12 59.4985 150.266 57.6858 150.266L57.69 150.271Z" fill="white"/>
<path d="M55.0093 118.122C55.6234 118.122 56.1782 118.62 56.2375 119.354C56.2375 120.144 57.4022 122.991 58.6982 125.637C60.3627 124.963 62.1923 124.098 64.2549 122.951C64.4286 122.86 64.6149 122.815 64.7928 122.815C65.2248 122.815 65.6314 123.082 65.822 123.585C66.0888 124.294 65.8559 125.164 65.2544 125.481C63.3232 126.588 61.5613 127.418 59.9646 128.087C61.3961 130.773 63.2935 133.937 65.822 137.569C66.1566 138.082 66.1862 138.796 65.8897 139.309C65.6737 139.676 65.3053 139.883 64.9326 139.883C64.7843 139.883 64.6361 139.852 64.4921 139.782C63.861 139.505 63.1961 139.309 62.5311 139.108C60.4008 138.474 58.2069 138.122 56.0088 138.122C54.3443 138.122 52.9806 138.358 51.9853 138.796C50.5876 139.39 49.5881 140.572 49.5881 142.508C49.5881 144.088 50.2869 145.195 51.3839 145.869C52.6163 146.618 54.4121 147.096 56.2418 147.171C56.7415 147.197 57.2413 147.212 57.741 147.212C59.4902 147.212 61.2267 147.056 62.9632 146.779C63.0224 146.769 63.0817 146.764 63.141 146.764C63.7255 146.764 64.2041 147.287 64.293 148.006C64.3947 148.796 63.9584 149.47 63.2935 149.586C61.4554 149.863 59.5537 150.018 57.6902 150.018C57.1608 150.018 56.6314 150.003 56.1062 149.978C54.6069 149.898 53.0441 149.661 51.6168 149.108C48.9867 148.082 47.1274 145.949 47.1274 142.508C47.1274 140.059 48.0592 138.082 49.8549 136.859C51.4516 135.753 53.5481 135.28 56.0088 135.28C57.9401 135.28 59.8672 135.557 61.7307 135.989C60.0323 133.384 58.7025 131.009 57.6055 128.957C54.7763 129.908 52.5147 130.22 50.7867 130.22C49.5204 130.22 47.3942 129.983 46.2295 129.193C45.662 128.796 45.4629 127.966 45.7975 127.297C46.0305 126.824 46.4455 126.548 46.8648 126.548C47.0427 126.548 47.2248 126.598 47.3942 126.703C48.1947 127.217 49.8549 127.377 50.7867 127.377C52.1505 127.377 54.014 127.181 56.3434 126.467C55.5133 124.727 54.8441 123.228 54.446 122.121C54.0817 121.014 53.8785 120.34 53.8149 119.711C53.7472 118.922 54.2131 118.212 54.878 118.132C54.9246 118.127 54.9669 118.122 55.0135 118.122M55.0093 117.619C54.95 117.619 54.8907 117.619 54.8314 117.629C54.3952 117.679 54.0055 117.936 53.7345 118.338C53.4676 118.741 53.3448 119.244 53.3872 119.757C53.4592 120.446 53.6582 121.125 54.0479 122.302C54.3952 123.268 54.9373 124.52 55.6954 126.135C53.9547 126.623 52.3029 126.869 50.7825 126.869C49.6686 126.869 48.2159 126.658 47.5891 126.261C47.3603 126.115 47.1147 126.044 46.8606 126.044C46.2804 126.044 45.7298 126.427 45.4248 127.04C45.2046 127.483 45.1495 127.991 45.2596 128.479C45.3698 128.957 45.6366 129.364 46.0051 129.626C47.1994 130.436 49.3213 130.723 50.7782 130.723C52.7561 130.723 54.9881 130.325 57.4107 129.54C58.19 130.994 59.3081 133.006 60.7311 135.265C59.0752 134.938 57.4869 134.777 56.0046 134.777C53.3194 134.777 51.2399 135.315 49.6347 136.427C47.7119 137.735 46.6954 139.842 46.6954 142.513C46.6954 145.874 48.3938 148.384 51.4771 149.591C52.79 150.099 54.2978 150.391 56.0808 150.486C56.6018 150.511 57.1396 150.527 57.6817 150.527C59.5029 150.527 61.4088 150.381 63.3401 150.089C63.7848 150.008 64.1617 149.752 64.4116 149.355C64.6657 148.952 64.7716 148.449 64.7038 147.936C64.581 146.97 63.9203 146.266 63.1326 146.266C63.0521 146.266 62.9716 146.271 62.8911 146.286C61.0869 146.573 59.397 146.714 57.7326 146.714C57.237 146.714 56.7415 146.699 56.2545 146.673C54.4799 146.598 52.7307 146.13 51.5702 145.426C50.5326 144.792 50.0032 143.811 50.0032 142.513C50.0032 140.959 50.7147 139.868 52.1166 139.274C53.0822 138.851 54.4248 138.63 56.0003 138.63C58.0841 138.63 60.2441 138.957 62.4168 139.601C63.0606 139.792 63.7255 139.988 64.3354 140.255C64.5133 140.34 64.7166 140.386 64.9199 140.386C65.4493 140.386 65.9363 140.089 66.2243 139.596C66.6224 138.912 66.5928 137.951 66.1438 137.267C63.9966 134.183 62.1373 131.19 60.5956 128.348C62.2897 127.614 63.878 126.824 65.4281 125.934C66.2159 125.516 66.5674 124.369 66.1989 123.378C65.9533 122.72 65.4111 122.312 64.7843 122.312C64.5429 122.312 64.3015 122.372 64.077 122.493C62.2389 123.514 60.5363 124.344 58.8846 125.028C57.5039 122.161 56.6526 119.877 56.6526 119.354V119.304C56.5721 118.343 55.8606 117.619 55.0008 117.619H55.0093ZM83.4196 150.034C82.6572 150.034 82.0092 149.304 82.0092 148.439C82.0008 148.067 81.9203 144.727 81.8822 139.943C81.6153 140.255 81.3528 140.562 81.0902 140.874C79.917 142.252 78.8116 143.55 77.7062 144.717C77.4436 144.988 77.1048 145.139 76.7575 145.139C76.3509 145.139 75.9697 144.933 75.7071 144.576C75.182 143.856 75.2243 142.795 75.7961 142.207C77.2572 140.632 78.8921 138.726 80.4803 136.88C80.9562 135.447 81.4109 134.005 81.8441 132.554C81.8441 132.056 81.8356 131.558 81.8271 131.06C81.8186 130.667 81.8144 130.28 81.8102 129.888C80.8234 130.36 79.6883 130.803 78.4262 131.291C78.2822 131.346 78.1382 131.371 77.9899 131.371C77.3801 131.371 76.8464 130.909 76.6643 130.22C76.55 129.792 76.5796 129.349 76.749 128.967C76.9184 128.585 77.2064 128.303 77.5664 128.167C79.1504 127.584 80.6116 126.945 81.8102 126.311V124.515C81.8059 122.599 81.7975 120.793 81.8483 119.193C81.8864 118.258 82.4963 117.528 83.2332 117.528H83.301C84.0972 117.579 84.7368 118.388 84.6986 119.294C84.6902 119.787 84.6775 120.305 84.6648 120.833C84.6351 122.045 84.6055 123.293 84.6012 124.621C84.8765 124.45 85.1561 124.324 85.4525 124.324C85.749 124.324 86.02 124.445 86.2826 124.691C86.7443 125.149 86.9137 125.894 86.7146 126.553L85.0502 131.784C87.405 129.38 90.3443 126.819 93.2751 126.376C93.6182 126.326 93.9654 126.296 94.3085 126.296C98.7683 126.296 102.394 130.592 102.394 135.868C102.394 142.388 99.1452 146.668 92.4577 148.952C92.3349 148.997 92.1993 149.023 92.0638 149.023C91.4539 149.023 90.8906 148.519 90.7 147.8C90.4713 146.935 90.9033 145.994 91.6699 145.708C96.8031 143.932 99.4078 140.622 99.4078 135.874C99.4078 132.478 97.0953 129.717 94.2534 129.717C94.0459 129.717 93.8299 129.732 93.6224 129.762C90.5603 130.199 86.4478 134.747 84.6266 136.774C84.6563 141.719 84.7452 146.06 84.7833 147.916L84.7918 148.353C84.7918 149.299 84.1862 150.034 83.4154 150.034H83.4196Z" fill="white"/>
<path d="M83.229 117.775H83.284C83.949 117.815 84.5165 118.484 84.4826 119.279C84.4487 121.019 84.381 122.956 84.381 125.049C84.7283 124.807 85.0798 124.576 85.444 124.576C85.6685 124.576 85.9014 124.661 86.1428 124.893C86.541 125.29 86.6765 125.919 86.5071 126.472L84.5461 132.634C86.8755 130.184 90.1367 127.101 93.2962 126.628C93.6351 126.578 93.9697 126.553 94.3042 126.553C98.5734 126.553 102.178 130.667 102.178 135.874C102.178 143.459 97.7179 146.9 92.3984 148.716C92.2882 148.756 92.1739 148.776 92.0638 148.776C91.5471 148.776 91.0642 148.344 90.8991 147.725C90.7 146.975 91.0981 146.186 91.7292 145.944C95.956 144.48 99.6153 141.598 99.6153 135.869C99.6153 132.337 97.1673 129.46 94.2534 129.46C94.0374 129.46 93.8172 129.475 93.5969 129.51C90.5348 129.943 86.5748 134.254 84.4148 136.663C84.4487 142.076 84.5461 146.699 84.58 148.359C84.58 149.148 84.0803 149.782 83.4153 149.782C82.7504 149.782 82.2167 149.189 82.2167 148.439C82.1828 147.056 82.1151 143.62 82.0854 139.35C80.5226 141.165 79.0233 142.986 77.5622 144.526C77.3292 144.762 77.0412 144.883 76.7532 144.883C76.4229 144.883 76.0967 144.722 75.8638 144.405C75.4318 143.811 75.4318 142.906 75.9316 142.388C77.397 140.808 78.9937 138.952 80.6581 137.016C80.9927 136.03 81.6238 134.053 82.0558 132.589C82.0558 131.563 82.0219 130.537 82.0219 129.505C80.9927 130.018 79.7941 130.491 78.3626 131.045C78.2398 131.09 78.1127 131.115 77.9899 131.115C77.4859 131.115 77.0243 130.743 76.8633 130.139C76.6643 129.39 76.9946 128.64 77.6299 128.399C79.4596 127.725 80.925 127.056 82.0219 126.462C82.0219 123.856 81.988 121.326 82.0558 119.193C82.0897 118.424 82.5937 117.77 83.229 117.77M83.229 117.272C82.3777 117.272 81.6746 118.107 81.6323 119.173C81.5814 120.783 81.5899 122.594 81.5941 124.51V126.14C80.4294 126.749 79.0191 127.363 77.5029 127.921C77.0878 128.077 76.7532 128.404 76.5584 128.846C76.3636 129.289 76.3297 129.802 76.461 130.295C76.6727 131.09 77.2869 131.623 77.9899 131.623C78.1593 131.623 78.3245 131.593 78.4897 131.533C79.6374 131.09 80.6793 130.677 81.6026 130.255C81.6026 130.527 81.6111 130.793 81.6153 131.065C81.6238 131.548 81.6323 132.031 81.6323 132.508C81.2299 133.857 80.6454 135.703 80.2981 136.734C78.7226 138.565 77.1005 140.451 75.6478 142.021C74.9956 142.695 74.9447 143.917 75.5462 144.737C75.8469 145.149 76.2873 145.386 76.7575 145.386C77.1556 145.386 77.541 145.215 77.8417 144.903C78.9556 143.731 80.0652 142.428 81.2384 141.05C81.3824 140.879 81.5306 140.708 81.6746 140.537C81.717 145.004 81.789 148.087 81.7974 148.449C81.7974 149.435 82.5386 150.28 83.4195 150.28C84.3005 150.28 85.0078 149.435 85.0078 148.354L84.9993 147.901C84.9612 146.055 84.8765 141.769 84.8426 136.87C86.6807 134.822 90.6915 130.421 93.652 129.998C93.8553 129.968 94.0586 129.953 94.2576 129.953C96.9343 129.953 99.2002 132.659 99.2002 135.859C99.2002 140.481 96.6506 143.711 91.6191 145.451C90.7339 145.783 90.2384 146.865 90.5009 147.866C90.7212 148.691 91.365 149.264 92.068 149.264C92.2247 149.264 92.3814 149.234 92.5297 149.179C99.3061 146.865 102.605 142.503 102.605 135.859C102.605 130.441 98.8826 126.035 94.3085 126.035C93.9569 126.035 93.5969 126.06 93.2454 126.115C90.5179 126.522 87.7946 128.726 85.533 130.954L86.9094 126.633C87.1424 125.864 86.9433 125.008 86.4181 124.49C86.109 124.204 85.7871 124.058 85.4483 124.058C85.2238 124.058 85.0163 124.118 84.813 124.209C84.8214 123.032 84.8468 121.91 84.8765 120.823C84.8892 120.29 84.9019 119.777 84.9104 119.274C84.9527 118.243 84.22 117.312 83.3094 117.257H83.2332L83.229 117.272ZM123.227 151.15C122.63 151.15 122.088 150.698 121.88 150.029C121.27 148.147 119.479 142.911 115.968 134.868L115.493 135.154C113.884 136.13 112.224 137.136 110.492 138.077C110.309 138.172 110.115 138.223 109.915 138.223C109.348 138.223 108.84 137.835 108.615 137.242C108.463 136.834 108.446 136.387 108.569 135.979C108.692 135.562 108.95 135.235 109.289 135.054C110.911 134.173 112.533 133.208 114.1 132.277L114.672 131.935C114.019 130.511 113.304 129.033 112.55 127.473L111.783 125.884C111.398 125.104 111.648 123.997 112.325 123.524C112.529 123.384 112.766 123.308 113.016 123.308C113.545 123.308 114.058 123.645 114.316 124.168C115.104 125.783 115.815 127.342 116.506 128.851C116.747 129.375 116.98 129.893 117.217 130.401C118.352 129.692 119.466 129.012 120.529 128.379C124.011 126.271 126.852 124.606 129.093 123.972C129.55 123.841 130.025 123.776 130.495 123.776C132.176 123.776 133.798 124.646 134.836 126.105C135.797 127.453 136.191 129.183 135.937 130.979C135.569 133.746 133.866 135.909 131.143 137.061C129.754 137.649 128.292 137.906 127.386 137.946H127.318C126.581 137.946 125.971 137.237 125.933 136.326C125.916 135.879 126.052 135.456 126.315 135.144C126.569 134.842 126.916 134.661 127.297 134.641C127.865 134.606 128.479 134.5 129.127 134.329C130.766 133.912 132.79 132.906 133.155 130.461C133.277 129.616 133.108 128.841 132.672 128.223C132.168 127.513 131.35 127.091 130.486 127.091C130.241 127.091 129.991 127.126 129.754 127.197C128.187 127.654 125.578 129.002 121.783 131.326L118.513 133.343C122.147 141.674 123.943 146.97 124.548 148.872C124.824 149.757 124.455 150.733 123.727 151.055C123.57 151.125 123.405 151.161 123.24 151.161L123.227 151.15ZM122.219 127.026C121.609 127.026 121.059 126.553 120.881 125.874C120.635 124.888 119.919 123.68 119.161 122.403C118.915 121.985 118.657 121.558 118.411 121.115C118.204 120.758 118.123 120.32 118.191 119.888C118.259 119.455 118.462 119.078 118.767 118.831C118.992 118.649 119.258 118.553 119.53 118.555C120.004 118.555 120.461 118.836 120.724 119.294C120.957 119.707 121.207 120.124 121.465 120.547C122.261 121.859 123.087 123.213 123.545 124.852C123.782 125.753 123.388 126.668 122.643 126.95C122.507 127.005 122.367 127.031 122.219 127.031V127.026Z" fill="white"/>
<path d="M119.53 118.806C119.924 118.806 120.317 119.032 120.55 119.435C121.482 121.095 122.744 122.795 123.346 124.928C123.545 125.677 123.214 126.467 122.579 126.703C122.461 126.749 122.342 126.774 122.219 126.774C121.724 126.774 121.241 126.402 121.08 125.798C120.745 124.455 119.614 122.795 118.585 120.979C118.221 120.345 118.352 119.48 118.886 119.042C119.081 118.886 119.305 118.811 119.53 118.811M113.012 123.559C113.452 123.559 113.901 123.836 114.125 124.294C115.222 126.547 116.188 128.72 117.12 130.733C118.318 129.983 119.483 129.269 120.614 128.6C124.006 126.547 126.903 124.847 129.131 124.213C129.584 124.083 130.037 124.022 130.482 124.022C133.57 124.022 136.272 126.995 135.717 130.929C135.319 133.932 133.388 135.828 131.058 136.814C129.661 137.408 128.229 137.644 127.365 137.684H127.306C126.666 137.684 126.166 137.066 126.133 136.301C126.099 135.511 126.632 134.918 127.297 134.877C127.928 134.837 128.559 134.722 129.161 134.561C131.024 134.088 132.985 132.941 133.354 130.491C133.671 128.303 132.142 126.824 130.478 126.824C130.22 126.824 129.957 126.859 129.694 126.935C127.933 127.448 125.036 129.027 121.677 131.085L118.217 133.217C121.313 140.29 123.308 145.702 124.337 148.942C124.57 149.691 124.269 150.521 123.638 150.798C123.502 150.858 123.363 150.889 123.223 150.889C122.723 150.889 122.257 150.516 122.075 149.933C121.076 146.849 119.115 141.517 116.053 134.52C114.223 135.627 112.359 136.774 110.398 137.84C110.242 137.926 110.072 137.961 109.907 137.961C109.445 137.961 108.997 137.649 108.798 137.126C108.531 136.417 108.764 135.587 109.361 135.27C111.258 134.244 113.156 133.097 114.951 132.03C114.053 130.053 113.02 127.961 111.957 125.748C111.622 125.074 111.855 124.128 112.423 123.73C112.601 123.605 112.8 123.549 113.003 123.549M119.53 118.303C119.208 118.303 118.903 118.414 118.645 118.625C118.472 118.766 118.324 118.946 118.21 119.155C118.096 119.363 118.017 119.597 117.979 119.842C117.941 120.086 117.944 120.338 117.988 120.581C118.031 120.825 118.115 121.056 118.234 121.261C118.479 121.698 118.738 122.126 118.983 122.548C119.733 123.811 120.436 124.998 120.669 125.939C120.851 126.623 121.347 127.121 121.927 127.247C121.44 127.538 120.936 127.84 120.419 128.152C119.371 128.776 118.328 129.411 117.289 130.058C117.09 129.621 116.887 129.178 116.679 128.725C115.989 127.216 115.277 125.652 114.49 124.037C114.193 123.439 113.609 123.051 113.007 123.051C112.724 123.051 112.448 123.137 112.211 123.303C111.436 123.841 111.148 125.109 111.597 126.004C111.851 126.537 112.109 127.066 112.359 127.589C113.075 129.063 113.753 130.466 114.375 131.819L113.998 132.045C112.431 132.976 110.813 133.942 109.191 134.822C108.802 135.028 108.505 135.411 108.361 135.894C108.222 136.361 108.243 136.874 108.416 137.342C108.675 138.031 109.259 138.474 109.911 138.474C110.139 138.475 110.364 138.418 110.572 138.308C112.313 137.362 113.977 136.351 115.587 135.375L115.875 135.199C119.318 143.107 121.08 148.248 121.685 150.114C121.803 150.489 122.013 150.813 122.29 151.042C122.566 151.271 122.894 151.395 123.231 151.397C123.422 151.397 123.613 151.356 123.795 151.276C124.633 150.909 125.057 149.787 124.743 148.771C124.142 146.88 122.372 141.648 118.797 133.434L121.88 131.532C125.658 129.223 128.25 127.875 129.805 127.428C130.028 127.363 130.257 127.331 130.486 127.332C131.291 127.332 132.045 127.724 132.511 128.378C132.909 128.937 133.057 129.641 132.947 130.411C132.604 132.714 130.656 133.675 129.085 134.073C128.449 134.239 127.844 134.344 127.289 134.379C126.857 134.405 126.459 134.611 126.166 134.958C125.857 135.325 125.701 135.813 125.722 136.331C125.764 137.377 126.467 138.192 127.318 138.192H127.399C127.839 138.172 129.436 138.046 131.215 137.292C134.014 136.105 135.768 133.871 136.149 131.009C136.412 129.148 136.001 127.342 134.997 125.934C133.917 124.42 132.236 123.519 130.495 123.519C130.008 123.519 129.521 123.59 129.046 123.725C127.526 124.158 125.739 125.053 123.668 126.236C123.85 125.803 123.896 125.285 123.761 124.772C123.291 123.092 122.456 121.718 121.647 120.39C121.385 119.963 121.139 119.555 120.915 119.148C120.61 118.62 120.085 118.298 119.542 118.298L119.53 118.303Z" fill="white"/>
<path d="M158.939 141.643C157.973 144.606 156.575 147.252 154.682 148.912C154.487 149.083 153.556 149.174 152.954 148.595C152.336 148.007 152.133 146.709 151.9 145.225C151.891 145.185 151.887 145.144 151.883 145.124C151.734 144.153 151.662 143.671 151.756 143.459C151.972 142.971 152.844 142.8 153.285 143.183C153.505 143.374 153.505 143.6 153.767 144.239C153.983 144.772 154.216 145.18 154.377 145.441C154.78 144.822 155.262 143.992 155.737 142.961C156.05 142.282 156.338 141.538 156.647 140.612C157.511 138.007 157.977 135.039 157.977 132.589C157.977 130.295 157.312 128.952 155.182 128.952C154.386 128.952 153.585 129.189 152.785 129.35C151.188 134.249 148.693 140.728 145.132 146.97C144.767 147.644 144.001 147.76 143.467 147.328C142.934 146.895 142.768 145.984 143.133 145.351C146.195 140.019 148.456 134.445 150.019 129.903C148.922 130.179 146.491 130.693 145.094 130.854C144.429 130.934 143.827 130.456 143.73 129.666C143.628 128.877 144.064 128.167 144.729 128.047C146.826 127.69 148.922 127.257 150.985 126.819C151.616 124.727 152.217 122.589 152.683 120.456C152.848 119.707 153.547 119.229 154.178 119.43C154.809 119.626 155.241 120.416 155.076 121.17C154.809 122.473 154.309 124.37 153.746 126.266C154.22 126.183 154.699 126.143 155.178 126.145C158.706 126.145 160.434 128.675 160.434 132.584C160.434 135.431 159.9 138.671 158.934 141.633L158.939 141.643ZM168.621 140.693C168.023 140.693 167.456 140.099 167.388 139.39C167.189 137.493 166.854 136.07 166.189 134.41C165.525 132.75 164.593 130.854 163.127 128.208C162.763 127.539 162.928 126.628 163.492 126.191C164.055 125.758 164.754 125.994 165.156 126.623C166.452 128.716 167.651 131.286 168.417 133.183C169.15 135.079 169.582 136.935 169.815 139.068C169.917 139.938 169.349 140.688 168.616 140.688L168.621 140.693Z" fill="white"/>
<path d="M8.40296 196.332C4.83685 196.332 1.93567 192.921 1.93567 188.731V176.955C1.93567 176.11 2.54979 175.401 3.27826 175.401C4.00673 175.401 4.58697 176.115 4.58697 176.955V188.731C4.58697 191.251 6.29802 193.298 8.39872 193.298H21.6382C23.7389 193.298 25.45 191.251 25.45 188.731V176.955C25.45 176.11 26.0641 175.401 26.7926 175.401C27.521 175.401 28.1013 176.115 28.1013 176.955V188.731C28.1013 192.921 25.2001 196.332 21.634 196.332H8.39448H8.40296ZM14.8914 191.985C14.2053 191.985 13.6462 191.321 13.6462 190.512V184.878C12.3418 186.568 10.4952 188.842 8.43261 190.788C8.21661 190.984 7.94555 191.09 7.67025 191.09C7.28484 191.09 6.92484 190.884 6.70461 190.547C6.50979 190.245 6.42085 189.853 6.45897 189.47C6.50132 189.093 6.65802 188.761 6.90791 188.535C8.7799 186.769 10.491 184.697 11.3761 183.57H7.17049C6.52249 183.57 5.99308 182.941 5.99308 182.172C5.99308 181.402 6.52249 180.773 7.17049 180.773H13.6124V176.206C13.6124 175.396 14.2095 174.692 14.8872 174.692C15.5648 174.692 16.162 175.401 16.162 176.206V180.773H22.9681C23.6161 180.773 24.1455 181.402 24.1455 182.172C24.1455 182.941 23.6161 183.57 22.9681 183.57H18.5126C20.1813 185.597 21.6891 187.131 23.2222 188.364C23.7686 188.781 23.9168 189.682 23.5483 190.366C23.3324 190.763 22.9596 191 22.5488 191C22.3032 191 22.066 190.914 21.8585 190.758C20.0458 189.314 18.1187 187.307 16.1281 184.787V190.507C16.1281 191.321 15.5691 191.98 14.8829 191.98L14.8914 191.985ZM19.4147 179.993C19.0759 179.993 18.7413 179.827 18.4999 179.546C18.2585 179.264 18.1441 178.897 18.1568 178.489C18.1653 178.097 18.3008 177.73 18.5338 177.448L20.0669 175.743C20.2829 175.486 20.5794 175.34 20.8971 175.34C21.2147 175.34 21.5535 175.506 21.7949 175.788C22.0279 176.065 22.1507 176.437 22.138 176.845C22.1295 177.237 21.994 177.609 21.7611 177.886L20.2618 179.591C20.0415 179.853 19.7408 179.998 19.4147 179.998V179.993ZM10.1479 179.898C9.80908 179.898 9.47025 179.727 9.22037 179.425L7.9879 177.921C7.75919 177.649 7.63637 177.272 7.64484 176.87C7.65331 176.477 7.78885 176.11 8.02179 175.828C8.23355 175.577 8.52579 175.436 8.8392 175.436C9.19073 175.436 9.53378 175.607 9.7879 175.909L10.9907 177.418C11.2194 177.69 11.3423 178.067 11.3295 178.469C11.3211 178.862 11.1855 179.229 10.9526 179.511C10.7408 179.762 10.4571 179.903 10.1521 179.903L10.1479 179.898ZM1.45286 173.771C0.754034 173.771 0.211914 173.142 0.211914 172.332C0.211914 171.523 0.792152 170.778 1.45286 170.778H5.66697V165.024C5.66697 164.158 6.26838 163.429 6.97567 163.429C7.68297 163.429 8.31825 164.173 8.31825 165.024V170.778H13.6844V162.176C13.6844 161.331 14.2858 160.622 14.9931 160.622C15.7004 160.622 16.3356 161.336 16.3356 162.176V164.571H26.5046C27.1865 164.571 27.7794 165.28 27.7794 166.085C27.7794 166.89 27.1822 167.599 26.5046 167.599H16.3356V170.773H28.6984C29.3592 170.773 29.9394 171.497 29.9394 172.327C29.9394 173.157 29.393 173.766 28.6984 173.766H1.45286V173.771Z" fill="white"/>
<path d="M14.9929 160.873C15.5901 160.873 16.1237 161.467 16.1237 162.176V164.822H26.5044C27.0677 164.822 27.5675 165.415 27.5675 166.084C27.5675 166.753 27.0677 167.347 26.5044 167.347H16.1237V171.024H28.6983C29.2616 171.024 29.7275 171.658 29.7275 172.327C29.7275 172.996 29.2616 173.514 28.6983 173.514H1.45271C0.889413 173.514 0.423529 173.001 0.423529 172.327C0.423529 171.653 0.889413 171.024 1.45271 171.024H5.87858V165.018C5.87858 164.309 6.37835 163.675 6.97552 163.675C7.5727 163.675 8.10634 164.309 8.10634 165.018V171.024H13.896V162.171C13.896 161.462 14.3957 160.868 14.9929 160.868M14.8913 174.938C15.4546 174.938 15.9543 175.531 15.9543 176.2V181.019H22.9722C23.2283 181.019 23.4739 181.14 23.655 181.355C23.8361 181.57 23.9378 181.862 23.9378 182.166C23.9378 182.47 23.8361 182.762 23.655 182.977C23.4739 183.192 23.2283 183.313 22.9722 183.313H18.0169C19.5797 185.25 21.2442 187.065 23.1077 188.57C23.5736 188.927 23.671 189.676 23.3745 190.229C23.1882 190.572 22.8748 190.748 22.5529 190.748C22.3538 190.748 22.1548 190.682 21.9769 190.546C19.3468 188.454 17.0513 185.607 15.9204 184.143V190.506C15.9204 191.175 15.4546 191.728 14.887 191.728C14.3195 191.728 13.8536 191.175 13.8536 190.506V184.223C12.888 185.486 10.728 188.293 8.29693 190.587C8.11481 190.753 7.89035 190.838 7.66588 190.838C7.36094 190.838 7.06023 190.687 6.86964 190.39C6.53505 189.877 6.60281 189.128 7.03481 188.73C8.9661 186.915 10.7957 184.701 11.8588 183.318H7.1661C6.91 183.318 6.66439 183.197 6.4833 182.982C6.3022 182.767 6.20046 182.475 6.20046 182.171C6.20046 181.867 6.3022 181.575 6.4833 181.36C6.66439 181.145 6.91 181.024 7.1661 181.024H13.8197V176.205C13.8197 175.536 14.3195 174.943 14.8828 174.943M20.8969 175.592C21.1637 175.592 21.4348 175.722 21.6423 175.969C22.0404 176.442 22.0065 177.231 21.6084 177.709L20.1134 179.409C19.9228 179.636 19.6687 179.747 19.4146 179.747C19.1393 179.747 18.8555 179.616 18.648 179.369C18.2499 178.896 18.2837 178.107 18.6818 177.629L20.2108 175.929C20.4014 175.702 20.647 175.592 20.8927 175.592M26.8009 175.652C27.3981 175.652 27.8978 176.245 27.8978 176.955V188.73C27.8978 192.8 25.0687 196.08 21.6423 196.08H8.40281C4.97647 196.08 2.14729 192.8 2.14729 188.73V176.955C2.14729 176.245 2.68094 175.652 3.27811 175.652C3.87529 175.652 4.37505 176.245 4.37505 176.955V188.73C4.37505 191.376 6.17081 193.549 8.39857 193.549H21.6381C23.8658 193.549 25.6616 191.376 25.6616 188.73V176.955C25.6616 176.245 26.1952 175.652 26.7924 175.652M8.83905 175.687C9.12704 175.687 9.41928 175.828 9.63528 176.085L10.8339 177.589C11.232 178.061 11.1981 178.851 10.8 179.329C10.6179 179.545 10.3849 179.646 10.1477 179.646C9.86822 179.646 9.58446 179.505 9.36846 179.249L8.13599 177.744C7.73787 177.272 7.77175 176.482 8.16986 176.004C8.35198 175.788 8.59339 175.687 8.83481 175.687M14.9929 160.37C14.1543 160.37 13.4724 161.18 13.4724 162.176V170.526H8.52986V165.023C8.52986 164.042 7.8014 163.177 6.97552 163.177C6.14964 163.177 5.45506 164.022 5.45506 165.023V170.526H1.45271C0.664943 170.526 0 171.351 0 172.332C0 173.313 0.652237 174.022 1.45271 174.022H28.6983C29.4988 174.022 30.151 173.263 30.151 172.332C30.151 171.351 29.4861 170.526 28.6983 170.526H16.5473V167.855H26.5044C27.2964 167.855 27.991 167.03 27.991 166.089C27.991 165.149 27.2964 164.324 26.5044 164.324H16.5473V162.181C16.5473 161.2 15.8357 160.375 14.9929 160.375V160.37ZM14.8913 174.435C14.0993 174.435 13.4047 175.26 13.4047 176.2V180.516H7.17458C6.40799 180.516 5.78541 181.256 5.78541 182.166C5.78541 183.077 6.40799 183.816 7.17458 183.816H10.8889C9.94869 184.983 8.42822 186.779 6.77646 188.333C6.63196 188.465 6.51108 188.63 6.42091 188.819C6.33073 189.007 6.27307 189.215 6.25128 189.43C6.20046 189.877 6.30635 190.34 6.53929 190.692C6.80188 191.095 7.2254 191.336 7.67434 191.336C8.00046 191.336 8.31387 191.21 8.56375 190.984C10.4527 189.203 12.1595 187.151 13.4386 185.516V190.506C13.4386 191.457 14.0908 192.232 14.8955 192.232C15.7002 192.232 16.3524 191.457 16.3524 190.506V185.416C18.2244 187.734 20.0371 189.601 21.7482 190.964C21.9981 191.155 22.2776 191.251 22.5614 191.251C23.0442 191.251 23.4847 190.969 23.7388 190.501C24.1708 189.701 23.9971 188.645 23.3449 188.147C21.9388 187.015 20.5538 185.622 19.0334 183.816H22.9849C23.7515 183.816 24.3741 183.077 24.3741 182.166C24.3741 181.256 23.7515 180.516 22.9849 180.516H16.3906V176.2C16.3906 175.26 15.696 174.435 14.904 174.435H14.8913ZM20.8969 175.089C20.5242 175.089 20.1769 175.26 19.9143 175.571L18.3938 177.257C17.8051 177.956 17.7924 179.052 18.3515 179.716C18.631 180.048 19.0207 180.239 19.4146 180.239C19.8084 180.239 20.1515 180.068 20.4141 179.757L21.9049 178.066C22.1844 177.734 22.3411 177.307 22.3538 176.849C22.3665 176.376 22.2225 175.934 21.9472 175.607C21.67 175.276 21.2942 175.088 20.9011 175.084L20.8969 175.089ZM26.8009 175.149C25.9581 175.149 25.2465 175.979 25.2465 176.955V188.73C25.2465 191.11 23.6287 193.046 21.6465 193.046H8.40705C6.4207 193.046 4.80706 191.11 4.80706 188.73V176.955C4.80706 175.959 4.12517 175.149 3.28658 175.149C2.44799 175.149 1.73224 175.979 1.73224 176.955V188.73C1.73224 193.061 4.72658 196.583 8.41128 196.583H21.6508C25.3312 196.583 28.3298 193.061 28.3298 188.73V176.955C28.3298 175.959 27.6479 175.149 26.8094 175.149H26.8009ZM8.83905 175.184C8.47058 175.184 8.12752 175.35 7.8734 175.652C7.60234 175.974 7.44563 176.401 7.43293 176.859C7.42022 177.332 7.56422 177.775 7.83951 178.102L9.06775 179.601C9.36422 179.953 9.7581 180.149 10.152 180.149C10.512 180.149 10.8508 179.983 11.1007 179.681C11.6767 178.997 11.6936 177.895 11.1346 177.231L9.94445 175.737C9.79982 175.564 9.62776 175.425 9.4381 175.33C9.24843 175.235 9.04487 175.186 8.83905 175.184ZM42.8357 197.398C42.1326 197.398 41.5609 196.698 41.5609 195.843V180.853C40.6291 182.895 39.1722 185.773 37.0842 189.078C36.9667 189.258 36.8159 189.405 36.6434 189.506C36.4709 189.607 36.2812 189.66 36.0889 189.661C35.8178 189.661 35.5552 189.56 35.3265 189.369C34.759 188.841 34.6531 187.88 35.0851 187.231C38.8291 181.336 40.6164 176.497 41.2009 174.716H36.1185C35.4324 174.716 34.8733 174.052 34.8733 173.242C34.8733 172.433 35.4324 171.764 36.1185 171.764H41.5312V165.778C41.2729 165.813 41.0145 165.853 40.7519 165.888C39.5999 166.054 38.4056 166.23 37.2917 166.26H37.2155C36.5336 166.26 36.0126 165.677 35.9745 164.877C35.9548 164.486 36.0662 164.101 36.2844 163.807C36.5026 163.513 36.8099 163.334 37.1392 163.308C39.8752 163.066 44.7754 162.347 46.8634 161.929C46.9397 161.914 47.0117 161.909 47.0794 161.909C47.702 161.909 48.2314 162.453 48.3077 163.172C48.422 163.952 47.9688 164.686 47.27 164.832C46.5373 164.998 45.1354 165.275 44.119 165.405V171.764H47.9307C48.6168 171.764 49.1759 172.428 49.1759 173.242C49.1759 174.057 48.6168 174.716 47.9307 174.716H44.119V177.317C44.3223 177.141 44.5721 177.04 44.839 177.04C45.2074 177.04 45.559 177.236 45.8004 177.584L48.3966 181.422C48.8244 182.025 48.7439 182.926 48.2018 183.469C47.99 183.68 47.7317 183.796 47.4521 183.796C47.0794 183.796 46.7237 183.595 46.4738 183.243L44.119 179.731V195.843C44.119 196.703 43.5472 197.398 42.8442 197.398H42.8357ZM60.5349 197.357C59.8234 197.357 59.2262 196.643 59.2262 195.803V185.974L50.4084 188.736C50.2983 188.766 50.1924 188.781 50.0865 188.781C49.4978 188.781 49.015 188.338 48.8837 187.679C48.7185 186.854 49.1124 186.059 49.7731 185.873L59.2262 182.88V162.92C59.2262 162.075 59.8276 161.366 60.5349 161.366C61.2422 161.366 61.8436 162.08 61.8436 162.92V182.035L64.3086 181.286C64.4187 181.256 64.5246 181.24 64.6262 181.24C65.2149 181.24 65.6978 181.683 65.829 182.342C65.9053 182.734 65.8629 183.132 65.702 183.469C65.5368 183.816 65.2658 184.057 64.9396 184.148L61.8436 185.124V195.798C61.8436 196.643 61.2422 197.352 60.5349 197.352V197.357ZM54.8512 179.711C54.5547 179.711 54.2582 179.586 54.0168 179.364L51.0183 176.477C50.7514 176.225 50.582 175.873 50.5439 175.486C50.5058 175.099 50.6032 174.711 50.815 174.389C51.0564 174.027 51.4164 173.816 51.806 173.816C52.094 173.816 52.3778 173.937 52.6107 174.148L55.6093 177.035C55.8761 177.287 56.0455 177.644 56.0794 178.046C56.1175 178.444 56.0201 178.841 55.8084 179.163C55.5754 179.51 55.2281 179.711 54.847 179.711H54.8512ZM55.4441 170.803C55.1265 170.803 54.83 170.667 54.6055 170.42L51.6832 167.382C51.1538 166.799 51.103 165.803 51.5688 165.204C51.823 164.877 52.183 164.691 52.5599 164.691C52.8775 164.691 53.174 164.827 53.3985 165.073L56.3251 168.152C56.8545 168.735 56.9053 169.691 56.4394 170.29C56.1853 170.617 55.8253 170.803 55.4484 170.803H55.4441Z" fill="white"/>
<path d="M60.535 161.623C61.1321 161.623 61.6319 162.217 61.6319 162.926V182.368L64.3594 181.538C64.4484 181.513 64.5373 181.503 64.6262 181.503C65.0921 181.503 65.5114 181.845 65.6215 182.408C65.7528 183.077 65.4564 183.751 64.8888 183.912L61.6277 184.938V195.803C61.6277 196.513 61.1279 197.106 60.5307 197.106C59.9335 197.106 59.4338 196.513 59.4338 195.803V185.647L50.3533 188.495C50.2644 188.52 50.1754 188.53 50.0865 188.53C49.6206 188.53 49.2013 188.188 49.0912 187.624C48.9599 186.95 49.2564 186.281 49.8239 186.12L59.438 183.077V162.926C59.438 162.217 59.9378 161.623 60.535 161.623ZM47.0752 162.161C47.6216 162.161 48.0324 162.634 48.0917 163.208C48.1933 163.882 47.791 164.47 47.2277 164.591C46.5289 164.747 44.966 165.064 43.8988 165.185V172.021H47.9223C48.4856 172.021 48.9557 172.574 48.9557 173.248C48.9557 173.922 48.4898 174.47 47.9223 174.47H43.8988V178.027C43.9759 177.809 44.1056 177.624 44.2714 177.494C44.4373 177.364 44.6319 177.296 44.8305 177.297C45.1185 177.297 45.415 177.443 45.631 177.75L48.2272 181.583C48.5914 182.096 48.494 182.846 48.062 183.283C47.8799 183.464 47.6639 183.55 47.4479 183.55C47.1472 183.55 46.8423 183.384 46.6305 183.087L43.903 179.018V195.849C43.903 196.558 43.4371 197.152 42.8399 197.152C42.2428 197.152 41.7769 196.558 41.7769 195.849V179.848C40.7138 182.297 39.1171 185.456 36.919 188.937C36.7072 189.259 36.4023 189.42 36.0931 189.42C35.8729 189.42 35.6484 189.34 35.4578 189.174C34.9919 188.741 34.8945 187.946 35.2588 187.393C39.151 181.266 40.9806 176.171 41.5143 174.47H36.1228C35.5552 174.47 35.0894 173.917 35.0894 173.248C35.0894 172.579 35.5552 172.021 36.1228 172.021H41.7472V165.501C40.2818 165.698 38.719 165.974 37.2875 166.015H37.2197C36.6564 166.015 36.2244 165.552 36.1905 164.868C36.1566 164.194 36.5886 163.605 37.1562 163.565C39.8498 163.328 44.7416 162.619 46.9058 162.181C46.9693 162.171 47.0286 162.166 47.0879 162.166M52.5557 164.943C52.8056 164.943 53.0554 165.044 53.2503 165.26L56.1768 168.344C56.6088 168.816 56.6766 169.606 56.2785 170.124C56.0583 170.406 55.7491 170.557 55.4441 170.557C55.1943 170.557 54.9444 170.456 54.7496 170.24L51.823 167.197C51.391 166.724 51.3232 165.894 51.7213 165.381C51.9416 165.099 52.2507 164.948 52.5557 164.948M51.8145 174.068C52.0474 174.068 52.2846 174.158 52.4879 174.345L55.4823 177.227C55.9481 177.659 56.0159 178.449 55.6474 179.003C55.4441 179.309 55.1561 179.455 54.8554 179.455C54.6098 179.455 54.3599 179.355 54.1524 179.158L51.158 176.276C50.6921 175.844 50.6244 175.089 50.9929 174.536C51.2004 174.219 51.5053 174.058 51.8187 174.058M60.535 161.12C59.6964 161.12 59.0145 161.93 59.0145 162.926V182.69L49.7138 185.632C48.9472 185.849 48.4898 186.769 48.6804 187.735C48.8329 188.51 49.4004 189.028 50.0907 189.028C50.2136 189.028 50.3364 189.013 50.455 188.977L59.0187 186.296V195.798C59.0187 196.794 59.7006 197.604 60.5392 197.604C61.3778 197.604 62.0597 196.794 62.0597 195.798V185.32L65.0032 184.395C65.1903 184.343 65.3662 184.245 65.5194 184.107C65.6726 183.969 65.7998 183.795 65.8926 183.595C66.0789 183.208 66.1298 182.74 66.0408 182.287C65.8884 181.513 65.3208 180.995 64.6305 180.995C64.5077 180.995 64.3848 181.01 64.2662 181.045L62.0597 181.719V162.926C62.0597 161.93 61.3778 161.12 60.5392 161.12H60.535ZM47.0752 161.658C46.9947 161.658 46.91 161.668 46.8296 161.684C44.7416 162.106 39.8498 162.82 37.1181 163.062C36.3261 163.117 35.7162 163.942 35.7628 164.898C35.8051 165.838 36.415 166.518 37.2155 166.518H37.3086C38.4183 166.487 39.6169 166.311 40.7773 166.145C40.9595 166.12 41.1416 166.095 41.3195 166.065V171.518H36.1185C35.3181 171.518 34.6616 172.292 34.6616 173.248C34.6616 174.204 35.3138 174.973 36.1185 174.973H40.8875C40.2056 176.965 38.4268 181.563 34.9157 187.086C34.4159 187.841 34.5388 188.952 35.191 189.561C35.4705 189.797 35.7755 189.913 36.0889 189.913C36.5421 189.913 36.9656 189.667 37.2493 189.239C39.0748 186.352 40.4174 183.796 41.3491 181.83V195.844C41.3491 196.84 42.0183 197.65 42.8357 197.65C43.6531 197.65 44.3223 196.84 44.3223 195.844V180.451L46.2959 183.394C46.5966 183.811 47.0117 184.048 47.4437 184.048C47.774 184.048 48.079 183.917 48.3289 183.661C48.9599 183.027 49.0531 181.97 48.5449 181.251L45.9571 177.428C45.6691 177.021 45.2625 176.789 44.8263 176.789C44.6484 176.789 44.479 176.829 44.318 176.9V174.968H47.918C48.7185 174.968 49.375 174.194 49.375 173.243C49.375 172.292 48.7227 171.513 47.918 171.513H44.318V165.632C45.3176 165.496 46.6051 165.24 47.2997 165.079C48.1086 164.908 48.638 164.053 48.5025 163.127C48.4093 162.287 47.7952 161.653 47.0667 161.653L47.0752 161.658ZM52.5557 164.44C52.1194 164.44 51.7044 164.656 51.4079 165.034C50.8658 165.733 50.9209 166.89 51.5307 167.564L54.4658 170.617C54.7199 170.899 55.0714 171.055 55.4399 171.055C55.8761 171.055 56.2912 170.838 56.5877 170.461C57.134 169.762 57.0747 168.645 56.4648 167.971L53.5298 164.883C53.2714 164.601 52.9241 164.44 52.5557 164.44ZM51.8145 173.565C51.3613 173.565 50.9378 173.806 50.6583 174.234C50.4126 174.606 50.2983 175.059 50.3406 175.512C50.383 175.969 50.582 176.382 50.8954 176.679L53.8855 179.556C54.1693 179.822 54.5124 179.963 54.8554 179.963C55.3001 179.963 55.711 179.727 55.982 179.319C56.4903 178.55 56.3844 177.433 55.7448 176.835L52.7547 173.957C52.4837 173.701 52.1491 173.565 51.8145 173.565ZM73.8549 193.61C73.3509 193.61 72.8935 193.298 72.6309 192.77C72.4403 192.388 72.398 191.935 72.5081 191.498C72.614 191.07 72.8512 190.713 73.173 190.487C78.0775 187.252 82.0926 183.429 85.4638 178.801C87.0097 176.684 88.3565 174.506 89.5678 172.151L81.9952 172.297C80.6314 174.143 78.6747 176.286 75.8413 179.038C75.5991 179.265 75.2988 179.388 74.99 179.385C74.558 179.385 74.1429 179.153 73.8803 178.761C73.6535 178.417 73.5459 177.984 73.5796 177.549C73.6177 177.101 73.7914 176.704 74.0794 176.432C76.3029 174.324 78.6154 172 80.4662 169.239C81.6013 167.534 81.8723 166.442 82.0544 165.466C82.1857 164.717 82.7744 164.173 83.4479 164.173C83.5453 164.173 83.6427 164.184 83.7359 164.209C84.0959 164.299 84.405 164.546 84.6041 164.903C84.8031 165.265 84.8709 165.698 84.7989 166.125C84.6126 167.136 84.35 168.027 83.9815 168.897L92.0412 168.746C92.5664 168.746 93.0365 169.068 93.2949 169.601C93.5448 170.124 93.5448 170.738 93.2949 171.256L92.9349 171.97C91.8507 174.128 90.2116 177.388 87.5815 180.979C83.973 185.899 79.5768 190.079 74.5156 193.404C74.3123 193.535 74.0836 193.6 73.8592 193.6L73.8549 193.61Z" fill="white"/>
<path d="M83.4437 164.441C83.5242 164.441 83.6089 164.451 83.6894 164.471C84.3204 164.627 84.7228 165.341 84.5873 166.091C84.4221 167.001 84.1553 168.027 83.6216 169.174L92.0371 169.018C92.9689 169.018 93.5661 170.205 93.1002 171.151C92.0371 173.244 90.3388 176.84 87.4122 180.834C84.4856 184.823 80.3604 189.29 74.4056 193.203C74.2277 193.314 74.0372 193.369 73.8508 193.369C73.44 193.369 73.0376 193.113 72.8089 192.65C72.4743 191.981 72.7073 191.111 73.2748 190.713C78.9628 186.961 82.855 182.771 85.6164 178.978C87.2296 176.776 88.6766 174.409 89.9407 171.906L81.8894 172.061C80.5595 173.877 78.6282 176.015 75.7016 178.857C75.4941 179.053 75.24 179.149 74.9816 179.149C74.6259 179.149 74.2701 178.963 74.0372 178.621C73.639 178.027 73.7026 177.117 74.2023 176.644C76.4979 174.471 78.7934 172.137 80.623 169.411C81.7539 167.71 82.0546 166.604 82.2536 165.537C82.368 164.883 82.8889 164.441 83.4395 164.441M83.4437 163.938C82.6729 163.938 81.9995 164.566 81.8428 165.437C81.6691 166.377 81.4023 167.439 80.2969 169.099C78.4588 171.835 76.159 174.154 73.944 176.247C73.6136 176.558 73.4061 177.016 73.368 177.534C73.3256 178.042 73.4485 178.54 73.711 178.928C73.8656 179.152 74.0601 179.333 74.2805 179.457C74.5009 179.582 74.7418 179.646 74.9859 179.647C75.3459 179.647 75.6932 179.506 75.9685 179.245C78.768 176.523 80.7204 174.39 82.0884 172.554L89.1825 172.414C88.0275 174.606 86.7304 176.688 85.303 178.641C81.9487 183.249 77.9506 187.046 73.0757 190.266C72.2837 190.819 72.0042 191.996 72.4489 192.897C72.7454 193.49 73.2833 193.862 73.855 193.862C74.1176 193.862 74.376 193.787 74.6089 193.641C79.6997 190.296 84.1129 186.101 87.7383 181.161C90.3811 177.554 92.0244 174.285 93.1129 172.117C93.24 171.865 93.3585 171.629 93.4687 171.408C93.7651 170.809 93.7651 170.095 93.4729 169.496C93.3294 169.196 93.1211 168.946 92.8696 168.773C92.618 168.599 92.3322 168.509 92.0414 168.51L84.3204 168.656C84.6211 167.881 84.8414 167.087 85.0066 166.196C85.0955 165.698 85.015 165.195 84.7821 164.778C84.5505 164.362 84.1895 164.073 83.7783 163.973C83.6682 163.946 83.5561 163.933 83.4437 163.933V163.938ZM106.458 195.065C105.895 195.065 105.383 194.647 105.154 194.003C104.845 193.093 105.175 192.157 105.933 191.78C106.895 191.267 107.835 190.648 108.724 189.944C110.871 188.244 112.439 186.448 113.383 184.607C114.26 182.917 114.683 181.242 114.683 179.481V165.809C114.683 165.365 114.832 164.939 115.096 164.624C115.361 164.31 115.72 164.134 116.094 164.134C116.468 164.134 116.826 164.31 117.091 164.624C117.355 164.939 117.504 165.365 117.504 165.809V179.481C117.504 181.88 116.919 184.265 115.81 186.372C114.929 188.047 113.705 189.652 112.172 191.136C110.639 192.62 108.707 194.033 107 194.924C106.827 195.014 106.645 195.06 106.458 195.06V195.065ZM106.78 183.49C106.005 183.49 105.37 182.741 105.37 181.815V169.013C105.37 168.093 106.001 167.338 106.78 167.338C107.559 167.338 108.157 168.072 108.157 169.013V181.815C108.157 182.756 107.551 183.49 106.78 183.49Z" fill="white"/>
<path d="M116.094 164.39C116.759 164.39 117.292 165.024 117.292 165.813V179.486C117.292 182.056 116.627 184.345 115.628 186.241C114.628 188.138 113.298 189.717 112.036 190.944C110.24 192.685 108.275 193.988 106.912 194.697C106.763 194.777 106.607 194.813 106.454 194.813C105.992 194.813 105.548 194.471 105.349 193.907C105.082 193.117 105.383 192.328 106.014 192.011C106.979 191.498 107.945 190.864 108.843 190.155C110.44 188.892 112.371 187.071 113.565 184.742C114.361 183.203 114.895 181.462 114.895 179.486V165.813C114.895 165.024 115.429 164.39 116.094 164.39ZM106.78 167.589C107.445 167.589 107.945 168.223 107.945 169.013V181.815C107.945 182.604 107.445 183.238 106.78 183.238C106.115 183.238 105.582 182.604 105.582 181.815V169.013C105.582 168.223 106.115 167.589 106.78 167.589ZM116.094 163.887C115.2 163.887 114.472 164.752 114.472 165.813V179.486C114.472 181.196 114.056 182.831 113.205 184.476C112.273 186.286 110.728 188.052 108.606 189.732C107.727 190.425 106.802 191.033 105.84 191.548C104.993 191.971 104.608 193.067 104.955 194.088C105.217 194.833 105.806 195.311 106.454 195.311C106.67 195.311 106.882 195.255 107.081 195.15C108.8 194.254 110.753 192.821 112.299 191.327C113.849 189.823 115.09 188.198 115.984 186.503C117.114 184.355 117.712 181.925 117.712 179.481V165.808C117.712 164.747 116.983 163.882 116.089 163.882L116.094 163.887ZM106.78 167.086C105.887 167.086 105.158 167.951 105.158 169.013V181.815C105.158 182.876 105.887 183.741 106.78 183.741C107.674 183.741 108.368 182.896 108.368 181.815V169.013C108.368 167.931 107.67 167.086 106.78 167.086ZM130.409 188.942C129.672 188.942 129.062 188.228 129.024 187.318C128.986 186.387 129.608 185.557 130.388 185.512L154.44 184.088H154.508C155.27 184.088 155.922 184.813 155.956 185.708C155.973 186.156 155.842 186.593 155.583 186.94C155.321 187.287 154.969 187.489 154.592 187.514L130.472 188.937H130.405L130.409 188.942ZM134.792 174.204C134.009 174.204 133.386 173.505 133.348 172.579C133.31 171.664 133.962 170.819 134.746 170.773L149.252 169.978C150.01 169.978 150.628 170.693 150.671 171.603C150.709 172.534 150.086 173.364 149.307 173.409L134.869 174.199H134.792V174.204Z" fill="white"/>
<path d="M149.256 170.234C149.895 170.234 150.429 170.853 150.463 171.618C150.497 172.408 149.963 173.117 149.298 173.157L134.86 173.947H134.792C134.123 173.947 133.594 173.363 133.56 172.563C133.526 171.774 134.093 171.059 134.758 171.024L149.197 170.234H149.256ZM154.512 184.339C155.151 184.339 155.719 184.958 155.749 185.723C155.782 186.512 155.249 187.222 154.584 187.262L130.464 188.685H130.405C129.765 188.685 129.265 188.067 129.231 187.302C129.197 186.512 129.731 185.803 130.396 185.763L154.448 184.339H154.508M149.256 169.731H149.175L134.737 170.521C133.822 170.577 133.09 171.522 133.136 172.589C133.179 173.65 133.89 174.45 134.792 174.45H134.877L149.315 173.66C150.209 173.605 150.929 172.659 150.882 171.593C150.84 170.546 150.124 169.731 149.252 169.731H149.256ZM154.512 183.836H154.431L130.379 185.26C129.486 185.315 128.77 186.261 128.812 187.327C128.854 188.373 129.558 189.188 130.409 189.188H130.489L154.609 187.765C155.045 187.74 155.448 187.503 155.749 187.111C156.045 186.713 156.197 186.215 156.176 185.697C156.134 184.671 155.389 183.836 154.516 183.836H154.512ZM169.767 195.572C169.34 195.572 168.937 195.32 168.713 194.913C168.357 194.254 168.543 193.298 169.111 192.865C178.399 185.954 180.305 177.921 180.694 174.787C180.766 174.062 181.275 173.534 181.901 173.534C181.952 173.534 182.007 173.534 182.058 173.544C182.388 173.59 182.681 173.781 182.884 174.088C183.087 174.394 183.18 174.777 183.142 175.169C182.825 177.936 180.978 187.548 170.436 195.345C170.242 195.491 170.009 195.572 169.767 195.572ZM168.492 182.74C167.976 182.74 167.484 182.367 167.298 181.834C166.858 180.627 166.205 179.415 165.579 178.238L165.219 177.563C165.045 177.242 164.986 176.854 165.053 176.472C165.121 176.09 165.312 175.768 165.583 175.556C165.79 175.401 166.028 175.315 166.273 175.315C166.684 175.315 167.057 175.551 167.273 175.949C168.094 177.433 168.941 179.037 169.551 180.687C169.721 181.135 169.695 181.633 169.479 182.05C169.268 182.458 168.903 182.719 168.501 182.74H168.492ZM174.35 180.763C173.812 180.763 173.308 180.32 173.151 179.716C172.821 178.424 172.198 177.025 171.639 175.813C171.478 175.476 171.436 175.058 171.525 174.681C171.614 174.319 171.813 174.022 172.088 173.851C172.266 173.741 172.465 173.68 172.668 173.68C173.122 173.68 173.549 173.972 173.77 174.425C174.456 175.808 175.193 177.825 175.485 178.897C175.599 179.319 175.54 179.772 175.328 180.134C175.108 180.511 174.756 180.743 174.363 180.763H174.354H174.35Z" fill="white"/>
<path d="M181.901 173.787C181.944 173.787 181.99 173.787 182.033 173.797C182.596 173.877 182.998 174.466 182.931 175.14C182.566 178.339 180.47 187.625 170.322 195.135C170.153 195.266 169.958 195.326 169.767 195.326C169.424 195.326 169.085 195.135 168.895 194.783C168.594 194.229 168.763 193.44 169.229 193.082C178.843 185.93 180.576 177.514 180.906 174.828C180.965 174.209 181.397 173.792 181.906 173.792M172.668 173.927C173.041 173.927 173.401 174.159 173.583 174.541C174.248 175.884 174.981 177.861 175.282 178.968C175.481 179.717 175.015 180.472 174.35 180.507C173.918 180.507 173.486 180.15 173.35 179.637C173.016 178.334 172.385 176.91 171.821 175.688C171.555 175.135 171.69 174.385 172.186 174.068C172.338 173.973 172.503 173.927 172.668 173.927ZM166.277 175.567C166.599 175.567 166.913 175.743 167.099 176.085C167.929 177.589 168.763 179.169 169.361 180.789C169.661 181.578 169.195 182.449 168.497 182.489C168.099 182.489 167.667 182.212 167.497 181.739C166.963 180.276 166.133 178.817 165.401 177.433C165.1 176.88 165.235 176.131 165.701 175.774C165.879 175.638 166.083 175.572 166.277 175.572M181.901 173.284C181.164 173.284 180.567 173.907 180.483 174.762C180.101 177.846 178.212 185.799 169.001 192.65C168.683 192.891 168.45 193.289 168.361 193.736C168.268 194.194 168.336 194.672 168.539 195.049C168.797 195.527 169.272 195.824 169.771 195.824C170.055 195.824 170.326 195.728 170.555 195.552C181.169 187.7 183.036 177.992 183.354 175.205C183.401 174.737 183.295 174.29 183.053 173.932C182.935 173.755 182.789 173.608 182.622 173.499C182.456 173.39 182.273 173.322 182.083 173.299C182.024 173.289 181.961 173.284 181.901 173.284ZM172.668 173.424C172.431 173.424 172.194 173.495 171.987 173.626C171.825 173.728 171.683 173.869 171.568 174.038C171.453 174.207 171.368 174.402 171.317 174.612C171.211 175.054 171.258 175.542 171.453 175.94C172.003 177.132 172.622 178.52 172.944 179.788C173.126 180.497 173.719 181.015 174.346 181.015C174.824 180.985 175.235 180.718 175.493 180.276C175.743 179.848 175.811 179.315 175.68 178.817C175.379 177.705 174.646 175.708 173.943 174.29C173.689 173.756 173.194 173.424 172.66 173.424H172.668ZM166.277 175.064C165.989 175.064 165.714 175.16 165.473 175.346C165.151 175.592 164.931 175.97 164.85 176.417C164.77 176.865 164.837 177.318 165.045 177.7C165.159 177.916 165.282 178.143 165.401 178.369C166.027 179.536 166.675 180.743 167.107 181.936C167.323 182.554 167.895 182.992 168.492 182.992C168.984 182.967 169.411 182.66 169.661 182.182C169.911 181.699 169.941 181.101 169.742 180.582C169.128 178.922 168.276 177.308 167.446 175.809C167.196 175.346 166.756 175.064 166.273 175.064H166.277ZM195.217 193.611C194.713 193.611 194.256 193.299 193.993 192.771C193.802 192.388 193.76 191.936 193.87 191.498C193.976 191.07 194.213 190.713 194.535 190.487C199.44 187.252 203.455 183.43 206.826 178.802C208.372 176.684 209.719 174.506 210.93 172.152L203.357 172.298C201.994 174.144 200.037 176.287 197.203 179.038C196.961 179.266 196.661 179.388 196.352 179.385C195.92 179.385 195.505 179.154 195.242 178.761C195.016 178.418 194.908 177.984 194.942 177.549C194.98 177.101 195.154 176.704 195.442 176.432C197.665 174.325 199.978 172.001 201.828 169.239C202.963 167.534 203.234 166.442 203.417 165.467C203.548 164.717 204.137 164.174 204.81 164.174C204.907 164.174 205.005 164.184 205.098 164.209C205.458 164.3 205.767 164.546 205.966 164.903C206.165 165.265 206.233 165.698 206.161 166.126C205.975 167.137 205.712 168.027 205.344 168.897L213.403 168.746C213.929 168.746 214.399 169.068 214.657 169.601C214.907 170.125 214.907 170.738 214.657 171.256L214.297 171.971C213.213 174.129 211.574 177.388 208.944 180.98C205.335 185.899 200.939 190.079 195.878 193.404C195.674 193.535 195.446 193.601 195.221 193.601L195.217 193.611Z" fill="white"/>
<path d="M204.81 164.441C204.891 164.441 204.975 164.451 205.056 164.471C205.687 164.627 206.089 165.341 205.954 166.091C205.788 167.001 205.522 168.027 204.988 169.174L213.403 169.018C214.335 169.018 214.932 170.205 214.467 171.151C213.403 173.244 211.705 176.84 208.779 180.834C205.852 184.823 201.727 189.29 195.772 193.203C195.594 193.314 195.403 193.369 195.217 193.369C194.806 193.369 194.404 193.113 194.175 192.65C193.841 191.981 194.074 191.111 194.641 190.713C200.329 186.961 204.221 182.771 206.983 178.978C208.596 176.776 210.043 174.409 211.307 171.906L203.256 172.061C201.926 173.877 199.995 176.015 197.068 178.857C196.86 179.053 196.606 179.149 196.348 179.149C195.992 179.149 195.636 178.963 195.403 178.621C195.005 178.027 195.069 177.117 195.569 176.644C197.864 174.471 200.16 172.137 201.989 169.411C203.12 167.71 203.421 166.604 203.62 165.537C203.734 164.883 204.255 164.441 204.806 164.441M204.81 163.938C204.039 163.938 203.366 164.566 203.209 165.437C203.036 166.377 202.769 167.439 201.663 169.099C199.825 171.835 197.525 174.154 195.31 176.247C194.98 176.558 194.772 177.016 194.734 177.534C194.692 178.042 194.815 178.54 195.077 178.928C195.232 179.152 195.426 179.333 195.647 179.457C195.867 179.582 196.108 179.646 196.352 179.647C196.712 179.647 197.059 179.506 197.335 179.245C200.134 176.523 202.087 174.39 203.455 172.554L210.549 172.414C209.394 174.606 208.097 176.688 206.669 178.641C203.315 183.249 199.317 187.046 194.442 190.266C193.65 190.819 193.371 191.996 193.815 192.897C194.112 193.49 194.65 193.862 195.221 193.862C195.484 193.862 195.742 193.787 195.975 193.641C201.066 190.296 205.479 186.101 209.105 181.161C211.747 177.554 213.391 174.285 214.479 172.117C214.606 171.865 214.725 171.629 214.835 171.408C215.131 170.809 215.131 170.095 214.839 169.496C214.696 169.196 214.487 168.946 214.236 168.773C213.984 168.599 213.699 168.509 213.408 168.51L205.687 168.656C205.987 167.881 206.208 167.087 206.373 166.196C206.462 165.698 206.381 165.195 206.148 164.778C205.917 164.362 205.556 164.073 205.145 163.973C205.035 163.946 204.922 163.933 204.81 163.933V163.938Z" fill="white"/>
<defs>
<linearGradient id="paint0_linear_101_1940" x1="62.0068" y1="50.8477" x2="149.152" y2="56.0623" gradientUnits="userSpaceOnUse">
<stop stop-color="#20D3DB"/>
<stop offset="0.41" stop-color="#318FBF"/>
<stop offset="0.46" stop-color="#237BB1"/>
<stop offset="0.57" stop-color="#477BB4"/>
<stop offset="0.72" stop-color="#4D5D9B"/>
<stop offset="1" stop-color="#7D5D9D"/>
</linearGradient>
</defs>
</svg>
