<svg width="108" height="107" viewBox="0 0 108 107" fill="none" xmlns="http://www.w3.org/2000/svg">
<path d="M50.6585 3.59224C84.47 1.52658 110.99 34.5076 101.6 67.0801C89.9964 107.33 38.0445 116.521 13.1966 83.0066C-10.2895 51.3346 11.5521 5.98284 50.6585 3.59224Z" fill="#F1F0EE" stroke="#518FBB" stroke-width="7" stroke-linecap="round" stroke-linejoin="round"/>
<path d="M50.5517 8.68908C89.5886 6.37276 113.135 51.8684 87.7403 82.2638C67.3996 106.611 28.9742 102.735 13.9978 74.8321C-1.38162 46.1774 18.2318 10.6062 50.5517 8.68908Z" fill="url(#paint0_linear_100_1882)"/>
<path d="M37.4146 25.4603C41.7227 24.8104 45.5676 26.449 48.8565 29.0717C53.1415 32.4835 56.4814 39.5253 63.1613 36.3967C58.7281 37.209 55.6985 33.0963 53.2017 30.0279C60.0437 27.8601 69.3177 22.1088 75.4509 28.756C83.6733 37.6686 74.1168 48.6003 71.8469 56.9976C69.7438 64.7868 70.8371 75.7232 66.5475 82.6907C64.9771 85.2438 61.4056 87.8062 60.6135 83.1132C59.8213 78.4202 61.6326 64.9771 54.3644 64.3226C45.4379 63.5149 47.2213 75.5839 46.6284 80.9918C45.8779 87.8247 41.9497 86.4647 39.6335 81.4142C36.1731 73.8664 37.3451 64.1926 34.9734 56.357C33.0973 50.16 28.627 45.5367 28.4047 38.5227C28.2333 33.1195 31.601 26.3376 37.41 25.4649L37.4146 25.4603Z" fill="#F1F0EE"/>
<path d="M38.8969 27.5864C42.3943 27.113 46.4754 29.3597 48.7499 31.9406C49.5096 32.804 52.2288 36.0626 49.7042 35.8677C46.9155 35.6541 43.4783 28.5844 37.4145 30.1349C36.4186 30.3902 32.4996 33.7741 34.3433 30.4551C34.9594 29.3411 37.6415 27.7582 38.8969 27.5864Z" fill="#B4EAF7"/>
<path d="M66.2324 28.0092C71.6337 27.3918 76.419 31.7877 74.8162 37.2466C73.6812 41.1087 71.7078 34.1272 71.4253 33.6352C69.2527 29.8799 66.4177 30.4694 62.9481 29.3878C62.9017 28.919 65.7877 28.0602 66.2324 28.0092Z" fill="#5169A7"/>
<defs>
<linearGradient id="paint0_linear_100_1882" x1="9.51831" y1="50.8472" x2="96.6635" y2="56.0618" gradientUnits="userSpaceOnUse">
<stop stop-color="#20D3DB"/>
<stop offset="0.41" stop-color="#318FBF"/>
<stop offset="0.46" stop-color="#237BB1"/>
<stop offset="0.57" stop-color="#477BB4"/>
<stop offset="0.72" stop-color="#4D5D9B"/>
<stop offset="1" stop-color="#7D5D9D"/>
</linearGradient>
</defs>
</svg>
