<svg xmlns="http://www.w3.org/2000/svg" id="_レイヤー_2" data-name="レイヤー 2" viewBox="0 0 761.56 230.43"><defs><linearGradient id="_名称未設定グラデーション_2" x1="20.47" x2="208.59" y1="109.5" y2="120.78" data-name="名称未設定グラデーション 2" gradientUnits="userSpaceOnUse"><stop offset="0" stop-color="#20d3db"/><stop offset=".41" stop-color="#318fbf"/><stop offset=".46" stop-color="#237bb1"/><stop offset=".57" stop-color="#477bb4"/><stop offset=".72" stop-color="#4d5d9b"/><stop offset="1" stop-color="#7d5d9d"/></linearGradient><style>.cls-7{fill:#2b7bb2}</style></defs><g id="_レイヤー_1-2" data-name="レイヤー 1"><path d="M109.28 7.7c72.99-4.45 130.24 66.6 109.97 136.77-25.05 86.71-137.2 106.51-190.84 34.31-50.7-68.23-3.55-165.93 80.87-171.08" style="stroke:#518fbb;stroke-width:15px;fill:#f1f0ee;stroke-linecap:round;stroke-linejoin:round"/><path d="M109.05 18.68c84.27-4.99 135.1 93.02 80.28 158.5-43.91 52.45-126.86 44.1-159.19-16.01-33.2-61.73 9.14-138.36 78.91-142.49" style="fill:url(#_名称未設定グラデーション_2)"/><path d="M80.69 54.81c9.3-1.4 17.6 2.13 24.7 7.78 9.25 7.35 16.46 22.52 30.88 15.78-9.57 1.75-16.11-7.11-21.5-13.72 14.77-4.67 34.79-17.06 48.03-2.74 17.75 19.2-2.88 42.75-7.78 60.84-4.54 16.78-2.18 40.34-11.44 55.35-3.39 5.5-11.1 11.02-12.81.91s2.2-39.07-13.49-40.48c-19.27-1.74-15.42 24.26-16.7 35.91-1.62 14.72-10.1 11.79-15.1.91-7.47-16.26-4.94-37.1-10.06-53.98-4.05-13.35-13.7-23.31-14.18-38.42-.37-11.64 6.9-26.25 19.44-28.13Z" style="fill:#f1f0ee"/><path d="M83.89 59.39c7.55-1.02 16.36 3.82 21.27 9.38 1.64 1.86 7.51 8.88 2.06 8.46-6.02-.46-13.44-15.69-26.53-12.35-2.15.55-10.61 7.84-6.63.69 1.33-2.4 7.12-5.81 9.83-6.18" style="fill:#b4eaf7"/><path d="M142.9 60.3c11.66-1.33 21.99 8.14 18.53 19.9-2.45 8.32-6.71-6.72-7.32-7.78-4.69-8.09-10.81-6.82-18.3-9.15-.1-1.01 6.13-2.86 7.09-2.97" style="fill:#5169a7"/><path d="M290.65 98.12c-1.27 0-2.54-.03-3.76-.08-4.17-.18-7.68-.76-10.74-1.75-7.06-2.33-10.95-7.15-10.95-13.59 0-5.12 2.31-9.15 6.69-11.67 3.7-2.16 8.54-3.21 14.78-3.21 3.84 0 7.98.4 12.32 1.18-3.83-5.04-6.79-9.56-8.77-12.67-5.81 1.61-11.15 2.43-15.88 2.43-3.38 0-8.29-.55-11.01-2.11a3.3 3.3 0 0 1-1.54-1.98 3.18 3.18 0 0 1 .34-2.48c.63-1.07 1.76-1.73 2.96-1.73.52 0 1.02.12 1.48.37 1.62.88 5.17 1.28 7.78 1.28 3.82 0 7.97-.55 12.36-1.63-1.96-3.47-3.33-6.13-4.18-8.12-.91-2.31-1.37-3.64-1.53-4.93-.09-.91.16-1.78.71-2.47a3.3 3.3 0 0 1 2.25-1.23c.12-.01.25-.02.37-.02 1.77 0 3.24 1.25 3.4 2.9 0 1.37 2.37 6.44 5.54 11.93 4.04-1.39 8.2-3.09 12.68-5.19.48-.21.98-.32 1.48-.32 1.28 0 2.38.7 2.88 1.83.76 1.72.05 3.7-1.59 4.43-3.81 1.84-7.72 3.48-11.94 4.99 3.71 5.82 8.24 11.96 13.45 18.27.93 1.21 1 2.87.18 4.06-.59.85-1.59 1.36-2.67 1.36-.42 0-.84-.08-1.22-.23-1.46-.54-3.04-.93-4.57-1.31-5.17-1.29-10.31-1.95-15.28-1.95-3.78 0-7 .45-9.33 1.3-2.43.87-5.33 2.77-5.33 6.91 0 2.78 1.34 4.88 3.97 6.23 2.79 1.43 7 2.38 11.26 2.54 1.16.05 2.34.08 3.52.08 3.95 0 7.96-.28 12.26-.86.16-.02.33-.04.49-.04 1.61 0 2.96 1.22 3.21 2.89.13.89-.08 1.76-.6 2.45-.51.68-1.29 1.13-2.18 1.26-4.55.58-9.02.87-13.3.87Z" class="cls-7"/><path d="M284.32 34.21c1.45 0 2.76.99 2.9 2.45 0 1.57 2.75 7.23 5.81 12.49 3.93-1.34 8.25-3.06 13.12-5.34.41-.18.85-.27 1.27-.27 1.02 0 1.98.53 2.43 1.53.63 1.41.08 3.14-1.34 3.77-4.56 2.2-8.72 3.85-12.49 5.18 3.38 5.34 7.86 11.63 13.83 18.85.79 1.02.86 2.44.16 3.46-.51.73-1.38 1.14-2.26 1.14-.35 0-.7-.06-1.04-.2-1.49-.55-3.06-.94-4.63-1.34-5.03-1.26-10.21-1.96-15.4-1.96-3.93 0-7.15.47-9.5 1.34-3.3 1.18-5.66 3.53-5.66 7.38 0 3.14 1.65 5.34 4.24 6.68 2.91 1.49 7.15 2.44 11.47 2.59 1.18.05 2.36.08 3.54.08 4.13 0 8.23-.31 12.33-.86q.21-.03.42-.03c1.38 0 2.51 1.04 2.72 2.47.24 1.57-.79 2.91-2.36 3.14-4.34.55-8.83.86-13.23.86-1.25 0-2.5-.03-3.74-.08-3.54-.16-7.23-.63-10.6-1.73-6.21-2.04-10.6-6.28-10.6-13.12 0-4.87 2.2-8.8 6.44-11.23 3.77-2.2 8.72-3.14 14.53-3.14 4.56 0 9.11.55 13.51 1.41-4.01-5.18-7.15-9.9-9.74-13.98-6.68 1.89-12.02 2.51-16.1 2.51-2.99 0-8.01-.47-10.76-2.04-1.34-.79-1.81-2.44-1.02-3.77.55-.94 1.53-1.49 2.52-1.49.42 0 .85.1 1.25.31 1.89 1.02 5.81 1.34 8.01 1.34 3.22 0 7.62-.39 13.12-1.81-1.96-3.46-3.54-6.44-4.48-8.64-.86-2.2-1.34-3.54-1.49-4.79-.16-1.57.94-2.98 2.51-3.14.11-.01.21-.02.32-.02m-.01-1c-.14 0-.28 0-.42.02-1.03.1-1.95.61-2.59 1.41-.63.8-.92 1.8-.82 2.82.17 1.37.64 2.72 1.56 5.06.82 1.92 2.1 4.41 3.89 7.62-4.11.97-8.01 1.46-11.6 1.46-2.63 0-6.06-.42-7.54-1.21-.54-.29-1.12-.43-1.72-.43-1.37 0-2.67.76-3.39 1.98-.52.88-.65 1.89-.39 2.86.26.95.89 1.76 1.76 2.28 2.82 1.61 7.83 2.18 11.27 2.18 4.67 0 9.94-.79 15.66-2.35 1.84 2.89 4.48 6.89 7.84 11.38-3.91-.65-7.66-.97-11.16-.97-6.34 0-11.25 1.07-15.04 3.28-4.54 2.6-6.94 6.79-6.94 12.1 0 6.68 4.01 11.67 11.29 14.07 3.1 1.01 6.66 1.59 10.87 1.78 1.23.05 2.5.08 3.78.08 4.3 0 8.8-.29 13.36-.87 1.05-.16 1.94-.67 2.53-1.46.6-.8.85-1.8.69-2.82-.29-1.92-1.85-3.32-3.71-3.32-.19 0-.38.01-.57.04-4.26.57-8.25.85-12.18.85-1.17 0-2.34-.03-3.49-.08-4.19-.15-8.32-1.08-11.06-2.48-2.45-1.26-3.7-3.21-3.7-5.79 0-3.09 1.68-5.26 4.99-6.44 2.28-.84 5.45-1.28 9.17-1.28 4.92 0 10.02.65 15.15 1.93 1.52.38 3.09.77 4.53 1.3.42.17.9.26 1.38.26 1.25 0 2.4-.59 3.08-1.57.94-1.36.87-3.27-.19-4.63-5.07-6.13-9.46-12.08-13.1-17.73 4-1.46 7.75-3.03 11.41-4.8 1.86-.83 2.69-3.11 1.82-5.08-.58-1.31-1.86-2.12-3.34-2.12-.57 0-1.14.12-1.67.36-4.34 2.03-8.36 3.68-12.26 5.04-3.26-5.7-5.27-10.24-5.27-11.28v-.1c-.19-1.91-1.87-3.35-3.9-3.35ZM351.4 97.65c-1.8 0-3.33-1.45-3.33-3.17-.02-.74-.21-7.38-.3-16.89-.63.62-1.25 1.23-1.87 1.85-2.77 2.74-5.38 5.32-7.99 7.64-.62.54-1.42.84-2.24.84-.96 0-1.86-.41-2.48-1.12-1.24-1.43-1.14-3.54.21-4.71 3.45-3.13 7.31-6.92 11.06-10.59a261 261 0 0 0 3.22-8.6c0-.99-.02-1.98-.04-2.97-.02-.78-.03-1.55-.04-2.33-2.33.94-5.01 1.82-7.99 2.79-.34.11-.68.16-1.03.16-1.44 0-2.7-.92-3.13-2.29-.27-.85-.2-1.73.2-2.49s1.08-1.32 1.93-1.59c3.74-1.16 7.19-2.43 10.02-3.69v-3.57c-.01-3.81-.03-7.4.09-10.58.09-1.86 1.53-3.31 3.27-3.31h.16c1.88.1 3.39 1.71 3.3 3.51-.02.98-.05 2.01-.08 3.06-.07 2.41-.14 4.89-.15 7.53.65-.34 1.31-.59 2.01-.59s1.34.24 1.96.73c1.09.91 1.49 2.39 1.02 3.7l-3.93 10.4c5.56-4.78 12.5-9.87 19.42-10.75.81-.1 1.63-.16 2.44-.16 10.53 0 19.09 8.54 19.09 19.03 0 12.96-7.67 21.47-23.46 26.01-.29.09-.61.14-.93.14-1.44 0-2.77-1-3.22-2.43-.54-1.72.48-3.59 2.29-4.16 12.12-3.53 18.27-10.11 18.27-19.55 0-6.75-5.46-12.24-12.17-12.24-.49 0-1 .03-1.49.09-7.23.87-16.94 9.91-21.24 13.94.07 9.83.28 18.46.37 22.15l.02.87c0 1.88-1.43 3.34-3.25 3.34Z" class="cls-7"/><path d="M350.95 33.52h.13c1.57.08 2.91 1.41 2.83 2.99-.08 3.46-.24 7.31-.24 11.47.82-.48 1.65-.94 2.51-.94.53 0 1.08.17 1.65.63.94.79 1.26 2.04.86 3.14l-4.63 12.25c5.5-4.87 13.2-11 20.66-11.94.8-.1 1.59-.15 2.38-.15 10.08 0 18.59 8.18 18.59 18.53 0 15.08-10.53 21.92-23.09 25.53-.26.08-.53.12-.79.12-1.22 0-2.36-.86-2.75-2.09-.47-1.49.47-3.06 1.96-3.54 9.98-2.91 18.62-8.64 18.62-20.03 0-7.02-5.78-12.74-12.66-12.74-.51 0-1.03.03-1.55.1-7.23.86-16.58 9.43-21.68 14.22.08 10.76.31 19.95.39 23.25 0 1.57-1.18 2.83-2.75 2.83s-2.83-1.18-2.83-2.67c-.08-2.75-.24-9.58-.31-18.07-3.69 3.61-7.23 7.23-10.68 10.29-.55.47-1.23.71-1.91.71-.78 0-1.55-.32-2.1-.95-1.02-1.18-1.02-2.98.16-4.01 3.46-3.14 7.23-6.83 11.16-10.68.79-1.96 2.28-5.89 3.3-8.8 0-2.04-.08-4.08-.08-6.13-2.43 1.02-5.26 1.96-8.64 3.06-.29.09-.59.14-.88.14-1.19 0-2.28-.74-2.66-1.94-.47-1.49.31-2.98 1.81-3.46 4.32-1.34 7.78-2.67 10.37-3.85 0-5.18-.08-10.21.08-14.45.08-1.53 1.27-2.83 2.77-2.83m0-.99c-2.01 0-3.67 1.66-3.77 3.78-.12 3.2-.1 6.8-.09 10.61v3.24c-2.75 1.21-6.08 2.43-9.66 3.54-.98.31-1.77.96-2.23 1.84s-.54 1.9-.23 2.88c.5 1.58 1.95 2.64 3.61 2.64.4 0 .79-.06 1.18-.18 2.71-.88 5.17-1.7 7.35-2.54 0 .54.02 1.07.03 1.61.02.96.04 1.92.04 2.87-.95 2.68-2.33 6.35-3.15 8.4-3.72 3.64-7.55 7.39-10.98 10.51-1.54 1.34-1.66 3.77-.24 5.4.71.82 1.75 1.29 2.86 1.29.94 0 1.85-.34 2.56-.96 2.63-2.33 5.25-4.92 8.02-7.66.34-.34.69-.68 1.03-1.02.1 8.88.27 15.01.29 15.73 0 1.96 1.75 3.64 3.83 3.64s3.75-1.68 3.75-3.83l-.02-.9c-.09-3.67-.29-12.19-.37-21.93 4.34-4.07 13.81-12.82 20.8-13.66.48-.06.96-.09 1.43-.09 6.32 0 11.67 5.38 11.67 11.74 0 9.19-6.02 15.61-17.9 19.07-2.09.66-3.26 2.81-2.64 4.8.52 1.64 2.04 2.78 3.7 2.78.37 0 .74-.06 1.09-.17 16-4.6 23.79-13.27 23.79-26.48 0-10.77-8.79-19.53-19.59-19.53-.83 0-1.68.05-2.51.16-6.44.81-12.87 5.19-18.21 9.62l3.25-8.59c.55-1.53.08-3.23-1.16-4.26-.73-.57-1.49-.86-2.29-.86-.53 0-1.02.12-1.5.3.02-2.34.08-4.57.15-6.73.03-1.06.06-2.08.08-3.08.1-2.05-1.63-3.9-3.78-4.01h-.18ZM445.39 99.87c-1.41 0-2.69-.9-3.18-2.23-1.44-3.74-5.67-14.15-13.96-30.14l-1.12.57c-3.8 1.94-7.72 3.94-11.81 5.81-.43.19-.89.29-1.36.29-1.34 0-2.54-.77-3.07-1.95-.36-.81-.4-1.7-.11-2.51.29-.83.9-1.48 1.7-1.84 3.83-1.75 7.66-3.67 11.36-5.52l1.35-.68c-1.54-2.83-3.23-5.77-5.01-8.87l-1.81-3.16c-.91-1.55-.32-3.75 1.28-4.69.48-.28 1.04-.43 1.63-.43 1.25 0 2.46.67 3.07 1.71 1.86 3.21 3.54 6.31 5.17 9.31.57 1.04 1.12 2.07 1.68 3.08 2.68-1.41 5.31-2.76 7.82-4.02 8.22-4.19 14.93-7.5 20.22-8.76 1.08-.26 2.2-.39 3.31-.39 3.97 0 7.8 1.73 10.25 4.63 2.27 2.68 3.2 6.12 2.6 9.69-.87 5.5-4.89 9.8-11.32 12.09-3.28 1.17-6.73 1.68-8.87 1.76h-.16c-1.74 0-3.18-1.41-3.27-3.22-.04-.89.28-1.73.9-2.35.6-.6 1.42-.96 2.32-1 1.34-.07 2.79-.28 4.32-.62 3.87-.83 8.65-2.83 9.51-7.69.29-1.68-.11-3.22-1.14-4.45-1.19-1.41-3.12-2.25-5.16-2.25-.58 0-1.17.07-1.73.21-3.7.91-9.86 3.59-18.82 8.21l-7.72 4.01c8.58 16.56 12.82 27.09 14.25 30.87.65 1.76-.22 3.7-1.94 4.34-.37.14-.76.21-1.15.21Zm-2.38-47.96c-1.44 0-2.74-.94-3.16-2.29-.58-1.96-2.27-4.36-4.06-6.9-.58-.83-1.19-1.68-1.77-2.56-.49-.71-.68-1.58-.52-2.44s.64-1.61 1.36-2.1a3.16 3.16 0 0 1 1.8-.55c1.12 0 2.2.56 2.82 1.47.55.82 1.14 1.65 1.75 2.49 1.88 2.61 3.83 5.3 4.91 8.56.56 1.79-.37 3.61-2.13 4.17-.32.11-.65.16-1 .16Z" class="cls-7"/><path d="M436.66 35.57c.93 0 1.86.45 2.41 1.25 2.2 3.3 5.18 6.68 6.6 10.92.47 1.49-.31 3.06-1.81 3.53-.28.09-.56.14-.85.14-1.17 0-2.31-.74-2.69-1.94-.79-2.67-3.46-5.97-5.89-9.58-.86-1.26-.55-2.98.71-3.85.46-.31.99-.46 1.52-.46m-15.39 9.44c1.04 0 2.1.55 2.63 1.46 2.59 4.48 4.87 8.8 7.07 12.8 2.83-1.49 5.58-2.91 8.25-4.24 8.01-4.08 14.85-7.46 20.11-8.72 1.07-.26 2.14-.38 3.19-.38 7.29 0 13.67 5.91 12.36 13.73-.94 5.97-5.5 9.74-11 11.7-3.3 1.18-6.68 1.65-8.72 1.73h-.14c-1.51 0-2.69-1.23-2.77-2.75-.08-1.57 1.18-2.75 2.75-2.83 1.49-.08 2.98-.31 4.4-.63 4.4-.94 9.03-3.22 9.9-8.09.75-4.35-2.86-7.29-6.79-7.29-.61 0-1.23.07-1.85.22-4.16 1.02-11 4.16-18.93 8.25l-8.17 4.24c7.31 14.06 12.02 24.82 14.45 31.26.55 1.49-.16 3.14-1.65 3.69-.32.12-.65.18-.98.18-1.18 0-2.28-.74-2.71-1.9-2.36-6.13-6.99-16.73-14.22-30.64-4.32 2.2-8.72 4.48-13.35 6.6-.37.17-.77.24-1.16.24-1.09 0-2.15-.62-2.62-1.66-.63-1.41-.08-3.06 1.33-3.69 4.48-2.04 8.96-4.32 13.2-6.44-2.12-3.93-4.56-8.09-7.07-12.49-.79-1.34-.24-3.22 1.1-4.01.42-.25.89-.36 1.37-.36m15.41-10.43c-.76 0-1.48.22-2.09.64a3.767 3.767 0 0 0-.97 5.24c.58.87 1.19 1.72 1.77 2.56 1.77 2.51 3.43 4.87 3.98 6.74.43 1.36 1.6 2.35 2.97 2.6-1.15.58-2.34 1.18-3.56 1.8a446 446 0 0 0-7.39 3.79c-.47-.87-.95-1.75-1.44-2.65-1.63-3-3.31-6.11-5.17-9.32-.7-1.19-2.08-1.96-3.5-1.96-.67 0-1.32.17-1.88.5-1.83 1.07-2.51 3.59-1.45 5.37.6 1.06 1.21 2.11 1.8 3.15 1.69 2.93 3.29 5.72 4.76 8.41l-.89.45c-3.7 1.85-7.52 3.77-11.35 5.52-.92.41-1.62 1.17-1.96 2.13-.33.93-.28 1.95.13 2.88.61 1.37 1.99 2.25 3.53 2.25a3.8 3.8 0 0 0 1.56-.33c4.11-1.88 8.04-3.89 11.84-5.83l.68-.35c8.13 15.72 12.29 25.94 13.72 29.65a3.91 3.91 0 0 0 3.65 2.55c.45 0 .9-.08 1.33-.24 1.98-.73 2.98-2.96 2.24-4.98-1.42-3.76-5.6-14.16-14.04-30.49l7.28-3.78c8.92-4.59 15.04-7.27 18.71-8.16a6.6 6.6 0 0 1 1.61-.19c1.9 0 3.68.78 4.78 2.08.94 1.11 1.29 2.51 1.03 4.04-.81 4.58-5.41 6.49-9.12 7.28-1.5.33-2.93.54-4.24.61-1.02.05-1.96.46-2.65 1.15-.73.73-1.1 1.7-1.05 2.73.1 2.08 1.76 3.7 3.77 3.7h.19c1.04-.04 4.81-.29 9.01-1.79 6.61-2.36 10.75-6.8 11.65-12.49.62-3.7-.35-7.29-2.72-10.09-2.55-3.01-6.52-4.8-10.63-4.8-1.15 0-2.3.14-3.42.41-3.59.86-7.81 2.64-12.7 4.99.43-.86.54-1.89.22-2.91-1.11-3.34-3.08-6.07-4.99-8.71-.62-.85-1.2-1.66-1.73-2.47-.72-1.05-1.96-1.69-3.24-1.69Z" class="cls-7"/><path d="M529.71 80.97c-2.28 5.89-5.58 11.15-10.05 14.45-.46.34-2.66.52-4.08-.63-1.46-1.17-1.94-3.75-2.49-6.7-.02-.08-.03-.16-.04-.2-.35-1.93-.52-2.89-.3-3.31.51-.97 2.57-1.31 3.61-.55.52.38.52.83 1.14 2.1.51 1.06 1.06 1.87 1.44 2.39.95-1.23 2.09-2.88 3.21-4.93.74-1.35 1.42-2.83 2.15-4.67 2.04-5.18 3.14-11.08 3.14-15.95 0-4.56-1.57-7.23-6.6-7.23-1.88 0-3.77.47-5.66.79-3.77 9.74-9.66 22.62-18.07 35.03-.86 1.34-2.67 1.57-3.93.71s-1.65-2.67-.79-3.93c7.23-10.6 12.57-21.68 16.26-30.71-2.59.55-8.33 1.57-11.63 1.89-1.57.16-2.99-.79-3.22-2.36-.24-1.57.79-2.98 2.36-3.22 4.95-.71 9.9-1.57 14.77-2.44 1.49-4.16 2.91-8.41 4.01-12.65.39-1.49 2.04-2.44 3.53-2.04 1.49.39 2.51 1.96 2.12 3.46-.63 2.59-1.81 6.36-3.14 10.13a22.4 22.4 0 0 1 3.38-.24c8.33 0 12.41 5.03 12.41 12.8 0 5.66-1.26 12.1-3.54 17.99Zm22.86-1.89c-1.41 0-2.75-1.18-2.91-2.59-.47-3.77-1.26-6.6-2.83-9.9s-3.77-7.07-7.23-12.33c-.86-1.33-.47-3.14.86-4.01 1.33-.86 2.98-.39 3.93.86 3.06 4.16 5.89 9.27 7.7 13.04 1.73 3.77 2.75 7.46 3.3 11.7.24 1.73-1.1 3.22-2.83 3.22Z" style="stroke-linecap:round;stroke-linejoin:round;stroke:#2b7bb2;fill:#2b7bb2"/><path d="M273.63 195.29c-8.42 0-15.27-6.78-15.27-15.11v-23.41c0-1.68 1.45-3.09 3.17-3.09s3.09 1.42 3.09 3.09v23.41c0 5.01 4.04 9.08 9 9.08h31.26c4.96 0 9-4.07 9-9.08v-23.41c0-1.68 1.45-3.09 3.17-3.09s3.09 1.42 3.09 3.09v23.41c0 8.33-6.85 15.11-15.27 15.11h-31.26Zm15.32-8.64c-1.62 0-2.94-1.32-2.94-2.93v-11.2c-3.08 3.36-7.44 7.88-12.31 11.75-.51.39-1.15.6-1.8.6-.91 0-1.76-.41-2.28-1.08-.46-.6-.67-1.38-.58-2.14.1-.75.47-1.41 1.06-1.86 4.42-3.51 8.46-7.63 10.55-9.87h-9.93c-1.53 0-2.78-1.25-2.78-2.78s1.25-2.78 2.78-2.78h15.21v-9.08c0-1.61 1.41-3.01 3.01-3.01s3.01 1.41 3.01 3.01v9.08h16.07c1.53 0 2.78 1.25 2.78 2.78s-1.25 2.78-2.78 2.78H297.5c3.94 4.03 7.5 7.08 11.12 9.53 1.29.83 1.64 2.62.77 3.98-.51.79-1.39 1.26-2.36 1.26-.58 0-1.14-.17-1.63-.48-4.28-2.87-8.83-6.86-13.53-11.87v11.37c0 1.62-1.32 2.93-2.94 2.93Zm10.68-23.84c-.8 0-1.59-.33-2.16-.89s-.84-1.29-.81-2.1c.02-.78.34-1.51.89-2.07l3.62-3.39c.51-.51 1.21-.8 1.96-.8s1.55.33 2.12.89c.55.55.84 1.29.81 2.1-.02.78-.34 1.52-.89 2.07l-3.54 3.39c-.52.52-1.23.81-2 .81Zm-21.88-.19c-.8 0-1.6-.34-2.19-.94l-2.91-2.99c-.54-.54-.83-1.29-.81-2.09.02-.78.34-1.51.89-2.07.5-.5 1.19-.78 1.93-.78.83 0 1.64.34 2.24.94l2.84 3c.54.54.83 1.29.8 2.09-.02.78-.34 1.51-.89 2.07-.5.5-1.17.78-1.89.78Zm-20.53-12.18c-1.65 0-2.93-1.25-2.93-2.86s1.37-3.09 2.93-3.09h9.95v-11.44c0-1.72 1.42-3.17 3.09-3.17s3.17 1.48 3.17 3.17v11.44h12.67v-17.1c0-1.68 1.42-3.09 3.09-3.09s3.17 1.42 3.17 3.09v4.76h24.01c1.61 0 3.01 1.41 3.01 3.01s-1.41 3.01-3.01 3.01h-24.01v6.31h29.19c1.56 0 2.93 1.44 2.93 3.09s-1.29 2.86-2.93 2.86h-64.33Z" class="cls-7"/><path d="M289.19 124.8c1.41 0 2.67 1.18 2.67 2.59v5.26h24.51c1.33 0 2.51 1.18 2.51 2.51s-1.18 2.51-2.51 2.51h-24.51v7.31h29.69c1.33 0 2.43 1.26 2.43 2.59s-1.1 2.36-2.43 2.36h-64.33c-1.33 0-2.43-1.02-2.43-2.36s1.1-2.59 2.43-2.59h10.45v-11.94c0-1.41 1.18-2.67 2.59-2.67s2.67 1.26 2.67 2.67v11.94h13.67v-17.6c0-1.41 1.18-2.59 2.59-2.59m-.24 27.97c1.33 0 2.51 1.18 2.51 2.51v9.58h16.57a2.279 2.279 0 1 1 0 4.56h-11.7c3.69 3.85 7.62 7.46 12.02 10.45 1.1.71 1.33 2.2.63 3.3-.44.68-1.18 1.03-1.94 1.03-.47 0-.94-.13-1.36-.4-6.21-4.16-11.63-9.82-14.3-12.73v12.65c0 1.33-1.1 2.43-2.44 2.43s-2.44-1.1-2.44-2.43v-12.49c-2.28 2.51-7.38 8.09-13.12 12.65-.43.33-.96.5-1.49.5-.72 0-1.43-.3-1.88-.89-.79-1.02-.63-2.51.39-3.3 4.56-3.61 8.88-8.01 11.39-10.76h-11.08a2.279 2.279 0 1 1 0-4.56h15.71v-9.58c0-1.33 1.18-2.51 2.51-2.51m14.2 1.29c.63 0 1.27.26 1.76.75.94.94.86 2.51-.08 3.46l-3.53 3.38c-.45.45-1.05.67-1.65.67-.65 0-1.32-.26-1.81-.75-.94-.94-.86-2.51.08-3.46l3.61-3.38c.45-.45 1.03-.67 1.61-.67m13.95.12c1.41 0 2.59 1.18 2.59 2.59v23.41c0 8.09-6.68 14.61-14.77 14.61h-31.26c-8.09 0-14.77-6.52-14.77-14.61v-23.41c0-1.41 1.26-2.59 2.67-2.59s2.59 1.18 2.59 2.59v23.41c0 5.26 4.24 9.58 9.5 9.58h31.26c5.26 0 9.5-4.32 9.5-9.58v-23.41c0-1.41 1.26-2.59 2.67-2.59m-42.39.07c.68 0 1.37.28 1.88.79l2.83 2.99c.94.94.86 2.51-.08 3.46-.43.43-.98.63-1.54.63-.66 0-1.33-.28-1.84-.79l-2.91-2.99c-.94-.94-.86-2.51.08-3.46.43-.43 1-.63 1.57-.63m14.54-30.45c-1.98 0-3.59 1.61-3.59 3.59v16.6h-11.67v-10.94c0-1.95-1.72-3.67-3.67-3.67s-3.59 1.68-3.59 3.67v10.94h-9.45c-1.86 0-3.43 1.64-3.43 3.59s1.54 3.36 3.43 3.36h64.33c1.89 0 3.43-1.51 3.43-3.36 0-1.95-1.57-3.59-3.43-3.59h-28.69v-5.31h23.51c1.87 0 3.51-1.64 3.51-3.51s-1.64-3.51-3.51-3.51h-23.51v-4.26c0-1.95-1.68-3.59-3.67-3.59Zm-.24 27.96c-1.87 0-3.51 1.64-3.51 3.51v8.58h-14.71c-1.81 0-3.28 1.47-3.28 3.28s1.47 3.28 3.28 3.28h8.77c-2.22 2.32-5.81 5.89-9.71 8.98a3.24 3.24 0 0 0-1.24 2.18c-.12.89.13 1.81.68 2.51.62.8 1.62 1.28 2.68 1.28.77 0 1.51-.25 2.1-.7 4.46-3.54 8.49-7.62 11.51-10.87v9.92c0 1.89 1.54 3.43 3.44 3.43s3.44-1.54 3.44-3.43v-10.12c4.42 4.61 8.7 8.32 12.74 11.03.59.38 1.25.57 1.92.57 1.14 0 2.18-.56 2.78-1.49 1.02-1.59.61-3.69-.93-4.68-3.32-2.25-6.59-5.02-10.18-8.61h9.33c1.81 0 3.28-1.47 3.28-3.28s-1.47-3.28-3.28-3.28h-15.57v-8.58c0-1.87-1.64-3.51-3.51-3.51Zm14.18 1.3c-.88 0-1.7.34-2.32.96l-3.59 3.35c-1.39 1.39-1.42 3.57-.1 4.89.66.66 1.58 1.04 2.51 1.04s1.74-.34 2.36-.96l3.52-3.36c.66-.66 1.03-1.51 1.06-2.42.03-.94-.31-1.82-.96-2.47a3.53 3.53 0 0 0-2.47-1.04Zm13.94.12c-1.99 0-3.67 1.65-3.67 3.59v23.41c0 4.73-3.82 8.58-8.5 8.58h-31.26c-4.69 0-8.5-3.85-8.5-8.58v-23.41c0-1.98-1.61-3.59-3.59-3.59s-3.67 1.65-3.67 3.59v23.41c0 8.61 7.07 15.61 15.77 15.61h31.26c8.69 0 15.77-7 15.77-15.61v-23.41c0-1.98-1.61-3.59-3.59-3.59Zm-42.41.07c-.87 0-1.68.33-2.28.93-.64.64-1.01 1.49-1.04 2.4-.03.94.31 1.82.96 2.47l2.9 2.98c.7.7 1.63 1.09 2.56 1.09.85 0 1.65-.33 2.24-.93 1.36-1.36 1.4-3.55.08-4.87l-2.81-2.97a3.7 3.7 0 0 0-2.61-1.1M354.93 197.41c-1.66 0-3.01-1.39-3.01-3.09v-29.8c-2.2 4.06-5.64 9.78-10.57 16.35a2.98 2.98 0 0 1-2.35 1.16c-.64 0-1.26-.2-1.8-.58-1.34-1.05-1.59-2.96-.57-4.25 8.84-11.72 13.06-21.34 14.44-24.88h-12c-1.62 0-2.94-1.32-2.94-2.93s1.32-2.94 2.94-2.94h12.78v-11.9c-.61.07-1.22.15-1.84.22-2.72.33-5.54.68-8.17.74h-.18c-1.61 0-2.84-1.16-2.93-2.75a2.95 2.95 0 0 1 2.75-3.12c6.46-.48 18.03-1.91 22.96-2.74.18-.03.35-.04.51-.04 1.47 0 2.72 1.08 2.9 2.51.27 1.55-.8 3.01-2.45 3.3-1.73.33-5.04.88-7.44 1.14v12.64h9c1.62 0 2.94 1.32 2.94 2.94s-1.32 2.93-2.94 2.93h-9v5.17c.48-.35 1.07-.55 1.7-.55.87 0 1.7.39 2.27 1.08l6.13 7.63c1.01 1.2.82 2.99-.46 4.07-.5.42-1.11.65-1.77.65-.88 0-1.72-.4-2.31-1.1l-5.56-6.98v32.03c0 1.71-1.35 3.09-3.01 3.09Zm41.79-.08c-1.68 0-3.09-1.42-3.09-3.09V174.7l-20.82 5.49c-.26.06-.51.09-.76.09-1.39 0-2.53-.88-2.84-2.19-.39-1.64.54-3.22 2.1-3.59l22.32-5.95v-39.68c0-1.68 1.42-3.09 3.09-3.09s3.09 1.42 3.09 3.09v38l5.82-1.49q.39-.09.75-.09c1.39 0 2.53.88 2.84 2.19.18.78.08 1.57-.3 2.24-.39.69-1.03 1.17-1.8 1.35l-7.31 1.94v21.22c0 1.68-1.42 3.09-3.09 3.09Zm-13.42-35.08c-.7 0-1.4-.25-1.97-.69l-7.08-5.74c-.63-.5-1.03-1.2-1.12-1.97s.14-1.54.64-2.18c.57-.72 1.42-1.14 2.34-1.14.68 0 1.35.24 1.9.66l7.08 5.74c.63.5 1.03 1.21 1.11 2.01.09.79-.14 1.58-.64 2.22-.55.69-1.37 1.09-2.27 1.09Zm1.4-17.71c-.75 0-1.45-.27-1.98-.76l-6.9-6.04c-1.25-1.16-1.37-3.14-.27-4.33.6-.65 1.45-1.02 2.34-1.02.75 0 1.45.27 1.98.76l6.91 6.12c1.25 1.16 1.37 3.06.27 4.25-.6.65-1.45 1.02-2.34 1.02Z" class="cls-7"/><path d="M396.72 126.29c1.41 0 2.59 1.18 2.59 2.59v38.65l6.44-1.65c.21-.05.42-.07.63-.07 1.1 0 2.09.68 2.35 1.8.31 1.33-.39 2.67-1.73 2.99l-7.7 2.04v21.6c0 1.41-1.18 2.59-2.59 2.59s-2.59-1.18-2.59-2.59v-20.19l-21.44 5.66c-.21.05-.42.07-.63.07-1.1 0-2.09-.68-2.35-1.8-.31-1.34.39-2.67 1.73-2.99l22.7-6.05v-40.06c0-1.41 1.18-2.59 2.59-2.59m-31.78 1.07c1.29 0 2.26.94 2.4 2.08.24 1.34-.71 2.51-2.04 2.75-1.65.31-5.34.94-7.86 1.18v13.59h9.5c1.33 0 2.44 1.1 2.44 2.44s-1.1 2.43-2.44 2.43h-9.5v7.07a2.37 2.37 0 0 1 2.2-1.45c.68 0 1.38.29 1.89.9l6.13 7.62c.86 1.02.63 2.51-.39 3.38-.43.36-.94.53-1.45.53-.71 0-1.43-.33-1.93-.92l-6.44-8.09v33.46c0 1.41-1.1 2.59-2.51 2.59s-2.51-1.18-2.51-2.59v-31.81c-2.51 4.87-6.28 11.15-11.47 18.07-.5.64-1.22.96-1.95.96-.52 0-1.05-.16-1.5-.49-1.1-.86-1.33-2.44-.47-3.54 9.19-12.18 13.51-22.31 14.77-25.69h-12.73c-1.34 0-2.44-1.1-2.44-2.43s1.1-2.44 2.44-2.44h13.28V134c-3.46.39-7.15.94-10.53 1.02h-.16c-1.33 0-2.35-.92-2.43-2.28-.08-1.34.94-2.51 2.28-2.59 6.36-.47 17.91-1.88 23.02-2.75.15-.02.29-.03.43-.03m12.91 5.52c.59 0 1.18.2 1.64.63l6.91 6.13c1.02.94 1.18 2.51.24 3.54-.52.56-1.25.86-1.97.86-.59 0-1.18-.2-1.64-.63l-6.91-6.05c-1.02-.94-1.18-2.59-.24-3.61.52-.56 1.25-.86 1.97-.86m-1.75 18.13c.55 0 1.11.18 1.59.55l7.07 5.73c1.1.86 1.26 2.43.39 3.53-.48.61-1.16.9-1.87.9-.58 0-1.17-.2-1.66-.59l-7.07-5.73c-1.1-.86-1.26-2.36-.39-3.46.49-.63 1.21-.95 1.95-.95m20.58-25.72c-1.98 0-3.59 1.61-3.59 3.59v39.29l-21.96 5.85c-1.81.43-2.89 2.26-2.44 4.18.36 1.54 1.7 2.57 3.33 2.57.29 0 .58-.03.86-.1l20.22-5.33v18.89c0 1.98 1.61 3.59 3.59 3.59s3.59-1.61 3.59-3.59V173.4l6.95-1.84a3.24 3.24 0 0 0 2.1-1.59c.44-.77.56-1.7.35-2.6-.36-1.54-1.7-2.57-3.33-2.57-.29 0-.58.03-.86.1l-5.21 1.34v-37.36c0-1.98-1.61-3.59-3.59-3.59Zm-31.78 1.07c-.19 0-.39.02-.58.05-4.93.84-16.48 2.26-22.93 2.74-1.87.11-3.31 1.75-3.2 3.65.1 1.87 1.54 3.22 3.43 3.22h.22c2.62-.06 5.45-.41 8.19-.74.43-.05.86-.1 1.28-.16v10.84h-12.28c-1.89 0-3.44 1.54-3.44 3.44s1.54 3.43 3.44 3.43h11.26c-1.61 3.96-5.81 13.1-14.1 24.08-1.18 1.5-.89 3.71.65 4.92.66.47 1.38.7 2.12.7 1.07 0 2.07-.49 2.74-1.34 4.31-5.74 7.48-10.82 9.68-14.73v27.86c0 1.98 1.58 3.59 3.51 3.59s3.51-1.61 3.51-3.59v-30.6l4.66 5.85c.71.83 1.69 1.3 2.71 1.3.78 0 1.5-.26 2.09-.77 1.49-1.26 1.71-3.36.51-4.79l-6.11-7.6c-.68-.81-1.64-1.27-2.67-1.27-.42 0-.82.08-1.2.22v-3.84h8.5c1.89 0 3.44-1.54 3.44-3.43s-1.54-3.44-3.44-3.44h-8.5v-11.69c2.36-.27 5.4-.78 7.04-1.1 1.91-.34 3.16-2.04 2.84-3.88-.22-1.67-1.67-2.93-3.39-2.93Zm12.94 5.53c-1.03 0-2.01.43-2.71 1.18-1.28 1.39-1.15 3.69.29 5.03l6.93 6.07c.6.56 1.43.87 2.3.87 1.03 0 2.01-.43 2.71-1.18 1.29-1.39 1.15-3.61-.29-4.95l-6.93-6.14c-.61-.56-1.43-.88-2.3-.88m-1.75 18.14c-1.07 0-2.07.48-2.73 1.33-.58.74-.85 1.64-.75 2.54.1.91.57 1.73 1.31 2.32l7.06 5.72c.67.53 1.48.81 2.29.81 1.05 0 2.02-.47 2.66-1.28 1.2-1.53.95-3.75-.56-4.94l-7.06-5.72c-.64-.51-1.43-.78-2.22-.78M428.17 189.88c-1.19 0-2.27-.62-2.89-1.67-.45-.76-.55-1.66-.29-2.53.25-.85.81-1.56 1.57-2.01 11.58-6.43 21.06-14.03 29.02-23.23 3.65-4.21 6.83-8.54 9.69-13.22l-17.88.29c-3.22 3.67-7.84 7.93-14.53 13.4a3.2 3.2 0 0 1-2.01.69c-1.02 0-2-.46-2.62-1.24a3.4 3.4 0 0 1-.71-2.41c.09-.89.5-1.68 1.18-2.22 5.25-4.19 10.71-8.81 15.08-14.3 2.68-3.39 3.32-5.56 3.75-7.5.31-1.49 1.7-2.57 3.29-2.57.23 0 .46.02.68.07.85.18 1.58.67 2.05 1.38.47.72.63 1.58.46 2.43-.44 2.01-1.06 3.78-1.93 5.51l19.03-.3c1.24 0 2.35.64 2.96 1.7.59 1.04.59 2.26 0 3.29l-.85 1.42c-2.56 4.29-6.43 10.77-12.64 17.91-8.52 9.78-18.9 18.09-30.85 24.7-.48.26-1.02.39-1.55.39Z" class="cls-7"/><path d="M450.81 131.89c.19 0 .39.02.58.06 1.49.31 2.44 1.73 2.12 3.22-.39 1.81-1.02 3.85-2.28 6.13l19.87-.31c2.2 0 3.61 2.36 2.51 4.24-2.51 4.16-6.52 11.31-13.43 19.25-6.91 7.93-16.65 16.81-30.71 24.59-.42.22-.87.33-1.31.33-.97 0-1.92-.51-2.46-1.43-.79-1.33-.24-3.06 1.1-3.85 13.43-7.46 22.62-15.79 29.14-23.33a99 99 0 0 0 10.21-14.06l-19.01.31c-3.14 3.61-7.7 7.86-14.61 13.51-.49.39-1.09.58-1.7.58-.84 0-1.68-.37-2.23-1.05-.94-1.18-.79-2.99.39-3.93 5.42-4.32 10.84-8.96 15.16-14.38 2.67-3.38 3.38-5.58 3.85-7.7.27-1.3 1.5-2.18 2.8-2.18m.01-1c-1.82 0-3.41 1.25-3.78 2.98-.41 1.87-1.04 3.98-3.65 7.28-4.34 5.44-9.77 10.05-15 14.21-.78.62-1.27 1.53-1.36 2.56-.1 1.01.19 2 .81 2.77a3.9 3.9 0 0 0 3.01 1.43c.85 0 1.67-.28 2.32-.8 6.61-5.41 11.22-9.65 14.45-13.3l16.75-.28a99 99 0 0 1-9.16 12.38c-7.92 9.16-17.36 16.71-28.87 23.11-1.87 1.1-2.53 3.44-1.48 5.23.7 1.18 1.97 1.92 3.32 1.92.62 0 1.23-.15 1.78-.44 12.02-6.65 22.44-14.99 31-24.81 6.24-7.17 10.12-13.67 12.69-17.98q.45-.75.84-1.41c.7-1.19.7-2.61.01-3.8a3.87 3.87 0 0 0-3.38-1.96l-18.23.29c.71-1.54 1.23-3.12 1.62-4.89.21-.99.02-1.99-.53-2.82a3.74 3.74 0 0 0-2.37-1.6 4 4 0 0 0-.79-.08ZM505.15 192.77c-1.33 0-2.54-.83-3.08-2.11-.73-1.81.05-3.67 1.84-4.42 2.27-1.02 4.49-2.25 6.59-3.65 5.07-3.38 8.77-6.95 11-10.61 2.07-3.36 3.07-6.69 3.07-10.19v-27.18a3.329 3.329 0 1 1 6.66 0v27.18c0 4.77-1.38 9.51-4 13.7-2.08 3.33-4.97 6.52-8.59 9.47s-8.18 5.76-12.21 7.53c-.41.18-.84.27-1.28.27Zm.76-23.01c-1.83 0-3.33-1.49-3.33-3.33v-25.45c0-1.83 1.49-3.33 3.33-3.33s3.25 1.46 3.25 3.33v25.45c0 1.87-1.43 3.33-3.25 3.33" class="cls-7"/><path d="M527.9 131.79c1.57 0 2.83 1.26 2.83 2.83v27.18c0 5.11-1.57 9.66-3.93 13.43s-5.5 6.91-8.48 9.35c-4.24 3.46-8.88 6.05-12.1 7.46-.35.16-.72.23-1.08.23-1.09 0-2.14-.68-2.61-1.8-.63-1.57.08-3.14 1.57-3.77 2.28-1.02 4.56-2.28 6.68-3.69 3.77-2.51 8.33-6.13 11.15-10.76 1.88-3.06 3.14-6.52 3.14-10.45v-27.18c0-1.57 1.26-2.83 2.83-2.83m-21.99 6.36c1.57 0 2.75 1.26 2.75 2.83v25.45c0 1.57-1.18 2.83-2.75 2.83s-2.83-1.26-2.83-2.83v-25.45c0-1.57 1.26-2.83 2.83-2.83m21.99-7.36c-2.11 0-3.83 1.72-3.83 3.83v27.18c0 3.4-.98 6.65-2.99 9.92-2.2 3.6-5.85 7.11-10.86 10.45a46 46 0 0 1-6.53 3.61c-2 .84-2.91 3.02-2.09 5.05.62 1.48 2.01 2.43 3.54 2.43.51 0 1.01-.11 1.48-.32 4.06-1.78 8.67-4.63 12.32-7.6 3.66-2.99 6.59-6.22 8.7-9.59 2.67-4.27 4.08-9.1 4.08-13.96v-27.18c0-2.11-1.72-3.83-3.83-3.83Zm-21.99 6.36c-2.11 0-3.83 1.72-3.83 3.83v25.45c0 2.11 1.72 3.83 3.83 3.83s3.75-1.68 3.75-3.83v-25.45c0-2.15-1.65-3.83-3.75-3.83M561.7 180.6c-1.74 0-3.18-1.42-3.27-3.23-.09-1.85 1.38-3.5 3.22-3.59l56.79-2.83h.16c1.8 0 3.34 1.44 3.42 3.22.04.89-.27 1.76-.88 2.45-.62.69-1.45 1.09-2.34 1.14l-56.95 2.83h-.16Zm10.35-29.3c-1.85 0-3.32-1.39-3.41-3.23-.09-1.82 1.45-3.5 3.3-3.59l34.25-1.58c1.79 0 3.25 1.42 3.35 3.23.09 1.85-1.38 3.5-3.22 3.59l-34.09 1.57h-.18Z" class="cls-7"/><path d="M606.2 143.41c1.51 0 2.77 1.23 2.85 2.75.08 1.57-1.18 2.98-2.75 3.06l-34.09 1.57h-.16c-1.58 0-2.83-1.16-2.91-2.75-.08-1.57 1.26-2.99 2.83-3.06l34.09-1.57zm12.41 28.04c1.51 0 2.85 1.23 2.92 2.75.08 1.57-1.18 2.98-2.75 3.06l-56.95 2.83h-.14c-1.51 0-2.69-1.23-2.77-2.75-.08-1.57 1.18-2.98 2.75-3.06l56.79-2.83h.14m-12.4-29.04h-.19l-34.09 1.57c-2.16.11-3.89 1.99-3.78 4.11.1 2.11 1.78 3.7 3.91 3.7h.2l34.09-1.57c2.11-.11 3.81-1.99 3.7-4.11-.1-2.08-1.79-3.7-3.85-3.7Zm12.41 28.04h-.19l-56.79 2.83c-2.11.11-3.8 1.99-3.7 4.11.1 2.08 1.76 3.7 3.77 3.7h.19l56.95-2.83c1.03-.05 1.98-.52 2.69-1.3.7-.79 1.06-1.78 1.01-2.81-.1-2.04-1.86-3.7-3.92-3.7ZM654.63 193.78c-1.01 0-1.96-.5-2.49-1.31-.84-1.31-.4-3.21.94-4.07 21.93-13.74 26.43-29.71 27.35-35.94.17-1.44 1.37-2.49 2.85-2.49.12 0 .25 0 .37.02.78.09 1.47.47 1.95 1.08s.7 1.37.61 2.15c-.75 5.5-5.11 24.61-30 40.11-.46.29-1.01.45-1.58.45m-3.01-25.51c-1.22 0-2.38-.74-2.82-1.8-1.04-2.4-2.58-4.81-4.06-7.15l-.85-1.34c-.41-.64-.55-1.41-.39-2.17s.61-1.4 1.25-1.82c.49-.31 1.05-.48 1.63-.48.97 0 1.85.47 2.36 1.26 1.94 2.95 3.94 6.14 5.38 9.42.4.89.34 1.88-.17 2.71-.5.81-1.36 1.33-2.31 1.37zm13.83-3.93c-1.27 0-2.46-.88-2.83-2.08-.78-2.57-2.25-5.35-3.57-7.76-.38-.67-.48-1.5-.27-2.25.21-.72.68-1.31 1.33-1.65.42-.22.89-.34 1.37-.34 1.07 0 2.08.58 2.6 1.48 1.62 2.75 3.36 6.76 4.05 8.89.27.84.13 1.74-.37 2.46-.52.75-1.35 1.21-2.28 1.25h-.02Z" class="cls-7"/><path d="M683.28 150.47c.1 0 .21 0 .31.02 1.33.16 2.28 1.33 2.12 2.67-.86 6.36-5.81 24.82-29.77 39.75-.4.26-.86.38-1.31.38-.81 0-1.61-.38-2.06-1.08-.71-1.1-.31-2.67.79-3.38 22.7-14.22 26.79-30.95 27.57-36.29.14-1.23 1.16-2.06 2.36-2.06m-21.81.27c.88 0 1.73.46 2.16 1.22 1.57 2.67 3.3 6.6 4.01 8.8.47 1.49-.63 2.99-2.2 3.06-1.02 0-2.04-.71-2.36-1.73-.79-2.59-2.28-5.42-3.61-7.85-.63-1.1-.31-2.59.86-3.22.36-.19.75-.28 1.14-.28m-15.09 3.26c.76 0 1.5.35 1.94 1.03 1.96 2.99 3.93 6.13 5.34 9.35.71 1.57-.39 3.3-2.04 3.38-.94 0-1.96-.55-2.36-1.49-1.26-2.91-3.22-5.81-4.95-8.56-.71-1.1-.39-2.59.71-3.3.42-.27.9-.4 1.36-.4m36.89-4.55c-1.74 0-3.15 1.24-3.35 2.94-.9 6.13-5.36 21.94-27.11 35.56-.75.48-1.3 1.27-1.51 2.16-.22.91-.06 1.86.42 2.61.61.95 1.73 1.54 2.91 1.54.67 0 1.31-.19 1.85-.54 25.06-15.61 29.47-34.91 30.22-40.45.11-.93-.14-1.82-.71-2.53a3.37 3.37 0 0 0-2.29-1.26c-.14-.02-.29-.03-.43-.03m-21.8.28c-.56 0-1.12.14-1.61.4a3.23 3.23 0 0 0-1.58 1.96c-.25.88-.14 1.85.32 2.64 1.3 2.37 2.76 5.13 3.52 7.65.43 1.41 1.83 2.44 3.31 2.44 1.13-.06 2.1-.59 2.71-1.47.59-.85.75-1.91.44-2.9-.71-2.21-2.44-6.18-4.1-9-.6-1.06-1.77-1.72-3.03-1.72Zm-15.09 3.26c-.68 0-1.33.19-1.9.56-.76.49-1.28 1.24-1.47 2.13s-.03 1.79.46 2.55c.27.43.56.88.84 1.33 1.48 2.32 3.01 4.72 4.03 7.09.51 1.23 1.86 2.1 3.27 2.1 1.16-.05 2.17-.66 2.76-1.61.59-.96.66-2.15.19-3.18-1.45-3.3-3.46-6.51-5.42-9.49-.59-.92-1.63-1.48-2.77-1.48ZM714.72 189.88c-1.19 0-2.27-.62-2.89-1.67-.45-.76-.55-1.66-.29-2.53.25-.85.81-1.56 1.57-2.01 11.58-6.43 21.06-14.03 29.02-23.23 3.65-4.21 6.83-8.54 9.69-13.22l-17.88.29c-3.22 3.67-7.84 7.93-14.53 13.4a3.2 3.2 0 0 1-2.01.69c-1.02 0-2-.46-2.62-1.24a3.4 3.4 0 0 1-.71-2.41c.09-.89.5-1.68 1.18-2.22 5.25-4.19 10.71-8.81 15.08-14.3 2.68-3.39 3.32-5.56 3.75-7.5.31-1.49 1.7-2.57 3.29-2.57.23 0 .46.02.68.07.85.18 1.58.67 2.05 1.38.47.72.63 1.58.46 2.43-.44 2.01-1.06 3.78-1.93 5.51l19.03-.3c1.24 0 2.35.64 2.96 1.7.59 1.04.59 2.26 0 3.29l-.85 1.42c-2.56 4.29-6.43 10.77-12.64 17.91-8.52 9.78-18.9 18.09-30.85 24.7-.48.26-1.02.39-1.55.39Z" class="cls-7"/><path d="M737.37 131.89c.19 0 .39.02.58.06 1.49.31 2.44 1.73 2.12 3.22-.39 1.81-1.02 3.85-2.28 6.13l19.87-.31c2.2 0 3.61 2.36 2.51 4.24-2.51 4.16-6.52 11.31-13.43 19.25-6.91 7.93-16.65 16.81-30.71 24.59-.42.22-.87.33-1.31.33-.97 0-1.92-.51-2.46-1.43-.79-1.33-.24-3.06 1.1-3.85 13.43-7.46 22.62-15.79 29.14-23.33a99 99 0 0 0 10.21-14.06l-19.01.31c-3.14 3.61-7.7 7.86-14.61 13.51-.49.39-1.09.58-1.7.58-.84 0-1.68-.37-2.23-1.05-.94-1.18-.79-2.99.39-3.93 5.42-4.32 10.84-8.96 15.16-14.38 2.67-3.38 3.38-5.58 3.85-7.7.27-1.3 1.5-2.18 2.8-2.18m.01-1c-1.82 0-3.41 1.25-3.78 2.98-.41 1.87-1.04 3.98-3.65 7.28-4.34 5.44-9.77 10.05-15 14.21-.78.62-1.27 1.53-1.36 2.56-.1 1.01.19 2 .81 2.77a3.9 3.9 0 0 0 3.01 1.43c.85 0 1.67-.28 2.32-.8 6.61-5.41 11.22-9.65 14.45-13.3l16.75-.28a99 99 0 0 1-9.16 12.38c-7.92 9.16-17.36 16.71-28.87 23.11-1.87 1.1-2.53 3.44-1.48 5.23.7 1.18 1.97 1.92 3.32 1.92.62 0 1.23-.15 1.78-.44 12.02-6.65 22.44-14.99 31-24.81 6.24-7.17 10.12-13.67 12.69-17.98q.45-.75.84-1.41c.7-1.19.7-2.61.01-3.8a3.87 3.87 0 0 0-3.38-1.96l-18.23.29c.71-1.54 1.23-3.12 1.62-4.89.21-.99.02-1.99-.53-2.82a3.74 3.74 0 0 0-2.37-1.6 4 4 0 0 0-.79-.08Z" class="cls-7"/></g></svg>